<?xml version="1.0" encoding="UTF-8" standalone="no"?>
<svg
   width="106.25"
   height="106.25"
   viewBox="0 0 53.125 53.125"
   fill="none"
   stroke="#2ec27e"
   stroke-width="2.25"
   stroke-linecap="round"
   stroke-linejoin="round"
   class="lucide lucide-image-plus"
   version="1.1"
   id="svg4"
   xmlns:xlink="http://www.w3.org/1999/xlink"
   xmlns="http://www.w3.org/2000/svg"
   xmlns:svg="http://www.w3.org/2000/svg"
   xmlns:rdf="http://www.w3.org/1999/02/22-rdf-syntax-ns#"
   xmlns:cc="http://creativecommons.org/ns#">
  <defs
     id="defs4">
    <linearGradient
       id="linearGradient1">
      <stop
         style="stop-color:#2ec27e;stop-opacity:1"
         offset="0"
         id="stop1" />
      <stop
         style="stop-color:#e964e2;stop-opacity:1"
         offset="1"
         id="stop2" />
    </linearGradient>
    <linearGradient
       xlink:href="#linearGradient1"
       id="linearGradient2"
       x1="7.7799759"
       y1="7.7799764"
       x2="45.345024"
       y2="45.345024"
       gradientUnits="userSpaceOnUse" />
  </defs>
  <path
     id="circle4"
     style="stroke-width:5.625;stroke:url(#linearGradient2)"
     d="M 22.8125,20.3125 A 5,5 0 0 1 17.8125,25.3125 5,5 0 0 1 12.8125,20.3125 5,5 0 0 1 17.8125,15.3125 5,5 0 0 1 22.8125,20.3125 Z M 47.8125,35.3125 40.0975,27.5975 A 5,5 0 0 0 33.0275,27.5975 L 10.3125,50.3125 M 47.8125,26.5625 V 45.3125 A 5,5 0 0 1 42.8125,50.3125 H 7.8125 A 5,5 0 0 1 2.8125,45.3125 V 10.3125 A 5,5 0 0 1 7.8125,5.3125 H 26.5625 M 42.8125,2.8125 V 17.8125 M 35.3125,10.3125 H 50.3125" />
  <metadata
     id="metadata4">
    <rdf:RDF>
      <cc:Work
         rdf:about="">
        <cc:license
           rdf:resource="https://lucide.dev/license" />
      </cc:Work>
    </rdf:RDF>
  </metadata>
</svg>
