<?xml version="1.0" encoding="iso-8859-1"?>
<!-- Generator: Adobe Illustrator 19.0.0, SVG Export Plug-In . SVG Version: 6.00 Build 0)  -->
<svg version="1.1" id="Layer_1" xmlns="http://www.w3.org/2000/svg" xmlns:xlink="http://www.w3.org/1999/xlink" x="0px" y="0px"
	 viewBox="0 0 512 512" style="enable-background:new 0 0 512 512;" xml:space="preserve">
<g>
	<path style="fill:#BAB031;" d="M376.559,126.962c-4.697,0-8.505-3.808-8.505-8.505v-13.847c0-4.697,3.808-8.505,8.505-8.505
		c4.697,0,8.505,3.808,8.505,8.505v13.847C385.064,123.154,381.256,126.962,376.559,126.962z"/>
	<path style="fill:#BAB031;" d="M135.747,98.577c-4.697,0-8.505-3.808-8.505-8.505V72.975c0-4.697,3.808-8.505,8.505-8.505
		s8.505,3.808,8.505,8.505v17.097C144.251,94.769,140.444,98.577,135.747,98.577z"/>
	<path style="fill:#BAB031;" d="M135.453,194.883c-4.697,0-8.505,3.808-8.505,8.505v102.389
		c-7.388-15.863-17.444-30.534-29.939-43.421c-2.397-2.473-6.346-2.533-8.819-0.135c-2.472,2.397-2.533,6.347-0.135,8.819
		c20.48,21.119,33.851,47.442,38.894,75.909v89.28c0,4.697,3.808,8.505,8.505,8.505s8.505-3.808,8.505-8.505V203.388
		C143.958,198.691,140.15,194.883,135.453,194.883z"/>
	<path style="fill:#BAB031;" d="M423.814,262.221c-2.472-2.397-6.422-2.336-8.819,0.135c-12.492,12.882-22.546,27.548-29.932,43.405
		v-90.787c0-4.697-3.808-8.505-8.505-8.505c-4.697,0-8.505,3.808-8.505,8.505V445.3c0,4.697,3.808,8.505,8.505,8.505
		c4.697,0,8.505-3.808,8.505-8.505v-98.391c5.048-28.451,18.416-54.761,38.886-75.87
		C426.348,268.567,426.287,264.619,423.814,262.221z"/>
</g>
<path style="fill:#A67C52;" d="M377.846,235.425L377.846,235.425c-11.294,0-20.45-9.156-20.45-20.45v-78.653
	c0-11.294,9.156-20.45,20.45-20.45l0,0c11.294,0,20.45,9.156,20.45,20.45v78.653C398.296,226.269,389.141,235.425,377.846,235.425z"
	/>
<path style="fill:#936A45;" d="M374.028,214.975v-78.653c0-8.33,4.988-15.483,12.135-18.671c-2.542-1.134-5.351-1.778-8.315-1.778
	l0,0c-11.294,0-20.45,9.156-20.45,20.45v78.653c0,11.294,9.156,20.45,20.45,20.45l0,0c2.964,0,5.773-0.644,8.315-1.778
	C379.017,230.459,374.028,223.305,374.028,214.975z"/>
<path style="fill:#A67C52;" d="M134.157,235.425L134.157,235.425c13.946,0,25.25-11.305,25.25-25.25V113.06
	c0-13.946-11.305-25.25-25.25-25.25l0,0c-13.946,0-25.25,11.305-25.25,25.25v97.115C108.908,224.12,120.212,235.425,134.157,235.425
	z"/>
<path style="fill:#936A45;" d="M126.372,210.176V113.06c0-10.876,6.876-20.144,16.517-23.698c-2.722-1.004-5.663-1.552-8.733-1.552
	l0,0c-13.946,0-25.25,11.305-25.25,25.25v97.115c0,13.944,11.305,25.25,25.25,25.25l0,0c3.07,0,6.011-0.549,8.733-1.552
	C133.249,230.319,126.372,221.05,126.372,210.176z"/>
<path style="fill:#BAB031;" d="M263.906,42.607c-4.697,0-8.505-3.808-8.505-8.505V17.241c0-4.697,3.808-8.505,8.505-8.505
	c4.697,0,8.505,3.808,8.505,8.505v16.861C272.411,38.799,268.603,42.607,263.906,42.607z"/>
<path style="fill:#73D8D0;" d="M512,433.273v55.916c-7.167-9.378-17.803-14.061-28.451-14.061c-10.637,0-21.285,4.683-28.44,14.061
	c-7.167,9.378-17.815,14.073-28.451,14.073c-7.745,0-15.479-2.483-21.886-7.462c-2.393-1.848-4.604-4.06-6.554-6.611
	c-7.167-9.378-17.803-14.061-28.44-14.061s-21.285,4.683-28.451,14.061c-14.322,18.756-42.558,18.756-56.88,0h-0.011
	c-7.167-9.378-17.803-14.061-28.44-14.061c-10.637,0-21.273,4.683-28.44,14.061c-7.167,9.378-17.803,14.073-28.451,14.073
	c-10.637,0-21.285-4.695-28.44-14.073c-7.155-9.378-17.803-14.061-28.44-14.061c-10.648,0-21.285,4.683-28.451,14.061
	c-1.962,2.563-4.173,4.774-6.577,6.634c-6.396,4.955-14.129,7.439-21.863,7.439c-10.637,0-21.285-4.695-28.451-14.073
	c-14.322-18.745-42.558-18.745-56.88,0v-55.916c14.322-18.745,42.558-18.745,56.88,0c7.167,9.378,17.815,14.073,28.451,14.073
	c7.734,0,15.467-2.483,21.863-7.439c2.404-1.86,4.615-4.071,6.577-6.634c7.167-9.378,17.803-14.061,28.451-14.061
	c10.637,0,21.285,4.683,28.44,14.061c7.155,9.378,17.803,14.073,28.44,14.073c10.648,0,21.285-4.695,28.451-14.073
	c7.167-9.378,17.803-14.061,28.44-14.061c10.637,0,21.273,4.683,28.44,14.061h0.011c14.322,18.756,42.558,18.756,56.88,0
	c7.167-9.378,17.815-14.061,28.451-14.061c10.637,0,21.273,4.683,28.44,14.061c1.95,2.551,4.162,4.763,6.554,6.611
	c6.407,4.978,14.141,7.462,21.886,7.462c10.637,0,21.285-4.695,28.451-14.073c7.155-9.378,17.803-14.061,28.44-14.061
	C494.197,419.212,504.833,423.895,512,433.273z"/>
<path style="fill:#BAB031;" d="M328.092,308.423c-1.179,1.213-2.336,2.438-3.481,3.674c-32.976,35.8-51.131,82.746-52.151,131.325
	c-0.034,1.451-0.045,2.903-0.045,4.354v29.619c-5.126-2.654-10.773-3.969-16.42-3.969c-0.193,0-0.397,0-0.59,0.011v-91.852
	c0-6.758-0.363-13.528-1.191-20.23c-7.394-59.976-26.433-115.348-55.451-159.822c-1.871-2.892-1.066-6.758,1.826-8.641
	c2.88-1.871,6.747-1.066,8.63,1.826c20.287,31.105,35.856,67.335,46.187,106.627V179.003c0-4.785,3.946-8.641,8.766-8.493
	c4.661,0.136,8.244,4.196,8.244,8.856v193.252c10.455-26.954,26.274-51.8,46.924-73.096c2.551-2.619,6.827-2.529,9.253,0.318
	C330.7,302.333,330.36,306.077,328.092,308.423z"/>
<path style="fill:#69CCC2;" d="M512,455.194v33.997c-7.167-9.378-17.803-14.061-28.451-14.061c-10.637,0-21.285,4.683-28.44,14.061
	c-7.167,9.378-17.815,14.073-28.451,14.073c-7.745,0-15.479-2.483-21.886-7.462c-2.393-1.848-4.604-4.06-6.554-6.611
	c-7.167-9.378-17.803-14.061-28.44-14.061s-21.285,4.683-28.451,14.061c-14.322,18.756-42.558,18.756-56.88,0h-0.011
	c-3.357-4.4-7.496-7.756-12.02-10.092c-5.126-2.654-10.773-3.969-16.42-3.969c-0.193,0-0.397,0-0.59,0.011
	c-10.444,0.159-20.82,4.842-27.85,14.05c-7.167,9.378-17.803,14.073-28.451,14.073c-10.637,0-21.285-4.695-28.44-14.073
	c-7.155-9.378-17.803-14.061-28.44-14.061c-10.648,0-21.285,4.683-28.451,14.061c-1.962,2.563-4.173,4.774-6.577,6.634
	c-6.396,4.955-14.129,7.439-21.863,7.439c-10.637,0-21.285-4.695-28.451-14.073c-14.322-18.745-42.558-18.745-56.88,0v-33.997
	c14.322-18.745,42.558-18.745,56.88,0c7.167,9.378,17.815,14.073,28.451,14.073c7.734,0,15.467-2.483,21.863-7.439
	c2.404-1.86,4.615-4.071,6.577-6.634c7.167-9.378,17.803-14.061,28.451-14.061c10.637,0,21.285,4.683,28.44,14.061
	s17.803,14.073,28.44,14.073c10.648,0,21.285-4.695,28.451-14.073c7.031-9.208,17.406-13.891,27.85-14.05
	c0.193-0.011,0.397-0.011,0.59-0.011c5.659,0,11.328,1.327,16.465,3.992c4.513,2.336,8.63,5.693,11.975,10.07h0.011
	c14.322,18.756,42.558,18.756,56.88,0c7.167-9.378,17.815-14.061,28.451-14.061c10.637,0,21.273,4.683,28.44,14.061
	c1.95,2.551,4.162,4.763,6.554,6.611c6.407,4.978,14.141,7.462,21.886,7.462c10.637,0,21.285-4.695,28.451-14.073
	c7.155-9.378,17.803-14.061,28.44-14.061C494.197,441.132,504.833,445.816,512,455.194z"/>
<path style="fill:#A67C52;" d="M263.906,206.303L263.906,206.303c-16.507,0-29.888-13.382-29.888-29.888V61.46
	c0-16.507,13.382-29.888,29.888-29.888l0,0c16.507,0,29.888,13.382,29.888,29.888v114.955
	C293.794,192.922,280.413,206.303,263.906,206.303z"/>
<path style="fill:#936A45;" d="M253.673,176.415V61.46c0-13.063,8.383-24.16,20.061-28.227c-3.079-1.072-6.383-1.661-9.828-1.661
	l0,0c-16.507,0-29.888,13.382-29.888,29.888v114.955c0,16.507,13.381,29.888,29.888,29.888l0,0c3.444,0,6.749-0.59,9.828-1.661
	C262.056,200.576,253.673,189.477,253.673,176.415z"/>
<g>
</g>
<g>
</g>
<g>
</g>
<g>
</g>
<g>
</g>
<g>
</g>
<g>
</g>
<g>
</g>
<g>
</g>
<g>
</g>
<g>
</g>
<g>
</g>
<g>
</g>
<g>
</g>
<g>
</g>
</svg>
