<?xml version="1.0" encoding="UTF-8" standalone="no"?>
<svg
   viewBox="0 0 512 512"
   fill="#ffffff"
   fill-rule="evenodd"
   stroke="#000000"
   stroke-linecap="round"
   stroke-linejoin="round"
   version="1.1"
   id="svg277"
   sodipodi:docname="vn.hoabinh.quan.CoBang.svg"
   width="512"
   height="512"
   inkscape:version="1.2.2 (b0a8486541, 2022-12-01)"
   xmlns:inkscape="http://www.inkscape.org/namespaces/inkscape"
   xmlns:sodipodi="http://sodipodi.sourceforge.net/DTD/sodipodi-0.dtd"
   xmlns:xlink="http://www.w3.org/1999/xlink"
   xmlns="http://www.w3.org/2000/svg"
   xmlns:svg="http://www.w3.org/2000/svg">
  <sodipodi:namedview
     id="namedview279"
     pagecolor="#ffffff"
     bordercolor="#666666"
     borderopacity="1.0"
     inkscape:showpageshadow="2"
     inkscape:pageopacity="0.0"
     inkscape:pagecheckerboard="0"
     inkscape:deskcolor="#d1d1d1"
     showgrid="false"
     showguides="false"
     inkscape:zoom="0.55010116"
     inkscape:cx="172.69551"
     inkscape:cy="189.96506"
     inkscape:window-width="1300"
     inkscape:window-height="699"
     inkscape:window-x="0"
     inkscape:window-y="0"
     inkscape:window-maximized="1"
     inkscape:current-layer="svg277" />
  <defs
     id="defs180">
    <linearGradient
       id="A"
       y2="2.0774293"
       x2="184.24542"
       y1="10.392067"
       x1="184.24542"
       gradientTransform="scale(0.14407583,6.9407894)"
       gradientUnits="userSpaceOnUse">
      <stop
         stop-color="#4f8041"
         offset="3.4%"
         id="stop4" />
      <stop
         stop-color="#638c4e"
         offset="15.4%"
         id="stop6" />
      <stop
         stop-color="#7d9c5f"
         offset="35.3%"
         id="stop8" />
      <stop
         stop-color="#8fa86b"
         offset="55.7%"
         id="stop10" />
      <stop
         stop-color="#9aaf73"
         offset="76.9%"
         id="stop12" />
      <stop
         stop-color="#9eb175"
         offset="100%"
         id="stop14" />
    </linearGradient>
    <linearGradient
       id="B"
       y2="0"
       x2="0.5"
       y1="1"
       x1="0.5">
      <stop
         stop-color="#9eb175"
         offset="5.5%"
         id="stop17" />
      <stop
         stop-color="#75965e"
         offset="86.7%"
         id="stop19" />
    </linearGradient>
    <linearGradient
       id="C"
       y2="0"
       x2="0.4998"
       y1="1"
       x1="0.4998">
      <stop
         stop-color="#9eb175"
         offset="5.5%"
         id="stop22" />
      <stop
         stop-color="#75965e"
         offset="86.7%"
         id="stop24" />
    </linearGradient>
    <linearGradient
       id="D"
       y2="1.3944902"
       x2="129.25185"
       y1="8.8177328"
       x1="129.25185"
       gradientTransform="scale(0.11908542,8.3973334)"
       gradientUnits="userSpaceOnUse">
      <stop
         stop-color="#9eb175"
         offset="5.5%"
         id="stop27" />
      <stop
         stop-color="#75965e"
         offset="86.7%"
         id="stop29" />
    </linearGradient>
    <linearGradient
       id="E"
       y2="3.9034047"
       x2="92.201569"
       y1="12.915045"
       x1="93.080383"
       gradientTransform="scale(0.21339148,4.6862227)"
       gradientUnits="userSpaceOnUse">
      <stop
         stop-color="#9eb175"
         offset="5.5%"
         id="stop32" />
      <stop
         stop-color="#75965e"
         offset="86.7%"
         id="stop34" />
    </linearGradient>
    <linearGradient
       id="F"
       y2="0"
       x2="0.5"
       y1="1"
       x1="0.5">
      <stop
         stop-color="#9eb175"
         offset="5.5%"
         id="stop37" />
      <stop
         stop-color="#75965e"
         offset="86.7%"
         id="stop39" />
    </linearGradient>
    <linearGradient
       id="G"
       y2="2.5402403"
       x2="180.97466"
       y1="5.6283336"
       x1="180.97466"
       gradientTransform="scale(0.11366238,8.797986)"
       gradientUnits="userSpaceOnUse">
      <stop
         stop-color="#9eb175"
         offset="5.5%"
         id="stop42" />
      <stop
         stop-color="#75965e"
         offset="86.7%"
         id="stop44" />
    </linearGradient>
    <linearGradient
       id="H"
       y2="9.1101055"
       x2="57.31118"
       y1="27.201332"
       x1="55.492306"
       gradientTransform="scale(0.36905501,2.7096232)"
       gradientUnits="userSpaceOnUse">
      <stop
         stop-color="#9eb175"
         offset="5.5%"
         id="stop47" />
      <stop
         stop-color="#75965e"
         offset="86.7%"
         id="stop49" />
    </linearGradient>
    <linearGradient
       id="I"
       y2="7.3175435"
       x2="53.396126"
       y1="21.425396"
       x1="51.06197"
       gradientTransform="scale(0.28779188,3.4747333)"
       gradientUnits="userSpaceOnUse">
      <stop
         stop-color="#9eb175"
         offset="5.5%"
         id="stop52" />
      <stop
         stop-color="#75965e"
         offset="86.7%"
         id="stop54" />
    </linearGradient>
    <linearGradient
       id="J"
       y2="5.6761918"
       x2="71.925369"
       y1="29.107836"
       x1="71.930054"
       gradientTransform="scale(0.39925382,2.5046723)"
       gradientUnits="userSpaceOnUse">
      <stop
         stop-color="#4f8041"
         offset="3.4%"
         id="stop57" />
      <stop
         stop-color="#638c4e"
         offset="15.4%"
         id="stop59" />
      <stop
         stop-color="#7d9c5f"
         offset="35.3%"
         id="stop61" />
      <stop
         stop-color="#8fa86b"
         offset="55.7%"
         id="stop63" />
      <stop
         stop-color="#9aaf73"
         offset="76.9%"
         id="stop65" />
      <stop
         stop-color="#9eb175"
         offset="100%"
         id="stop67" />
    </linearGradient>
    <linearGradient
       id="K"
       y2="0"
       x2="0.5"
       y1="1"
       x1="0.5">
      <stop
         stop-color="#4f8041"
         offset="3.4%"
         id="stop70" />
      <stop
         stop-color="#638c4e"
         offset="15.4%"
         id="stop72" />
      <stop
         stop-color="#7d9c5f"
         offset="35.3%"
         id="stop74" />
      <stop
         stop-color="#8fa86b"
         offset="55.7%"
         id="stop76" />
      <stop
         stop-color="#9aaf73"
         offset="76.9%"
         id="stop78" />
      <stop
         stop-color="#9eb175"
         offset="100%"
         id="stop80" />
    </linearGradient>
    <linearGradient
       id="L"
       y2="0"
       x2="0.4998"
       y1="1"
       x1="0.4998">
      <stop
         stop-color="#4f8041"
         offset="3.4%"
         id="stop83" />
      <stop
         stop-color="#638c4e"
         offset="15.4%"
         id="stop85" />
      <stop
         stop-color="#7d9c5f"
         offset="35.3%"
         id="stop87" />
      <stop
         stop-color="#8fa86b"
         offset="55.7%"
         id="stop89" />
      <stop
         stop-color="#9aaf73"
         offset="76.9%"
         id="stop91" />
      <stop
         stop-color="#9eb175"
         offset="100%"
         id="stop93" />
    </linearGradient>
    <linearGradient
       id="M"
       y2="13.488061"
       x2="10.749421"
       y1="34.031029"
       x1="10.749421"
       gradientTransform="scale(0.48123521,2.0779859)"
       gradientUnits="userSpaceOnUse">
      <stop
         stop-color="#4f8041"
         offset="3.4%"
         id="stop96" />
      <stop
         stop-color="#638c4e"
         offset="15.4%"
         id="stop98" />
      <stop
         stop-color="#7d9c5f"
         offset="35.3%"
         id="stop100" />
      <stop
         stop-color="#8fa86b"
         offset="55.7%"
         id="stop102" />
      <stop
         stop-color="#9aaf73"
         offset="76.9%"
         id="stop104" />
      <stop
         stop-color="#9eb175"
         offset="100%"
         id="stop106" />
    </linearGradient>
    <linearGradient
       id="N"
       y2="18.536503"
       x2="64.66124"
       y1="37.356964"
       x1="64.66124"
       gradientTransform="scale(0.52836136,1.8926441)"
       gradientUnits="userSpaceOnUse">
      <stop
         stop-color="#4f8041"
         offset="3.4%"
         id="stop109" />
      <stop
         stop-color="#638c4e"
         offset="15.4%"
         id="stop111" />
      <stop
         stop-color="#7d9c5f"
         offset="35.3%"
         id="stop113" />
      <stop
         stop-color="#8fa86b"
         offset="55.7%"
         id="stop115" />
      <stop
         stop-color="#9aaf73"
         offset="76.9%"
         id="stop117" />
      <stop
         stop-color="#9eb175"
         offset="100%"
         id="stop119" />
    </linearGradient>
    <linearGradient
       id="O"
       y2="0.20882544"
       x2="82.824532"
       y1="14.512988"
       x1="79.493088"
       gradientTransform="scale(0.19658296,5.0869108)"
       gradientUnits="userSpaceOnUse">
      <stop
         stop-color="#4f8041"
         offset="3.4%"
         id="stop122" />
      <stop
         stop-color="#638c4e"
         offset="15.4%"
         id="stop124" />
      <stop
         stop-color="#7d9c5f"
         offset="35.3%"
         id="stop126" />
      <stop
         stop-color="#8fa86b"
         offset="55.7%"
         id="stop128" />
      <stop
         stop-color="#9aaf73"
         offset="76.9%"
         id="stop130" />
      <stop
         stop-color="#9eb175"
         offset="100%"
         id="stop132" />
    </linearGradient>
    <linearGradient
       id="P"
       y2="52.610588"
       x2="19.706085"
       y1="53.903515"
       x1="19.108629"
       gradientTransform="scale(1.1171526,0.89513282)"
       gradientUnits="userSpaceOnUse">
      <stop
         stop-color="#8c825e"
         offset="26.7%"
         id="stop135" />
      <stop
         stop-color="#584c37"
         offset="100%"
         id="stop137" />
    </linearGradient>
    <linearGradient
       id="Q"
       y2="49.484745"
       x2="34.711056"
       y1="49.484745"
       x1="32.341171"
       gradientTransform="scale(0.94083736,1.062883)"
       gradientUnits="userSpaceOnUse">
      <stop
         stop-color="#231000"
         offset="9%"
         id="stop140" />
      <stop
         stop-color="#4f3f3b"
         offset="100%"
         id="stop142" />
    </linearGradient>
    <linearGradient
       id="R"
       y2="39.984211"
       x2="7.7396655"
       y1="39.44466"
       x1="6.5877571"
       gradientTransform="scale(0.83253725,1.2011475)"
       gradientUnits="userSpaceOnUse">
      <stop
         stop-color="#8c825e"
         offset="26.7%"
         id="stop145" />
      <stop
         stop-color="#584c37"
         offset="100%"
         id="stop147" />
    </linearGradient>
    <linearGradient
       id="S"
       y2="30.880232"
       x2="20.256651"
       y1="30.181993"
       x1="19.218548"
       gradientTransform="scale(0.81982093,1.2197786)"
       gradientUnits="userSpaceOnUse">
      <stop
         stop-color="#8c825e"
         offset="26.7%"
         id="stop150" />
      <stop
         stop-color="#584c37"
         offset="100%"
         id="stop152" />
    </linearGradient>
    <linearGradient
       id="T"
       y2="31.5473"
       x2="7.4820461"
       y1="31.152161"
       x1="6.6323571"
       gradientTransform="scale(0.83037572,1.2042741)"
       gradientUnits="userSpaceOnUse">
      <stop
         stop-color="#231000"
         offset="9%"
         id="stop155" />
      <stop
         stop-color="#4f3f3b"
         offset="100%"
         id="stop157" />
    </linearGradient>
    <linearGradient
       id="U"
       y2="0.5"
       x2="1.0002999"
       y1="0.5"
       x1="0.00069999998">
      <stop
         stop-color="#231000"
         offset="9%"
         id="stop160" />
      <stop
         stop-color="#4f3f3b"
         offset="100%"
         id="stop162" />
    </linearGradient>
    <linearGradient
       id="V"
       y2="14.989386"
       x2="42.810722"
       y1="14.989386"
       x1="41.197605"
       gradientTransform="scale(0.60310108,1.6580969)"
       gradientUnits="userSpaceOnUse">
      <stop
         stop-color="#8c825e"
         offset="26.7%"
         id="stop165" />
      <stop
         stop-color="#584c37"
         offset="100%"
         id="stop167" />
    </linearGradient>
    <linearGradient
       id="W"
       y2="0.34509999"
       x2="0.70629996"
       y1="0.66500002"
       x1="0.3012">
      <stop
         stop-color="#231000"
         offset="9%"
         id="stop170" />
      <stop
         stop-color="#4f3f3b"
         offset="100%"
         id="stop172" />
    </linearGradient>
    <linearGradient
       id="X"
       y2="28.497595"
       x2="5.4624529"
       y1="28.497595"
       x1="4.1541643"
       gradientTransform="scale(0.90737021,1.102086)"
       gradientUnits="userSpaceOnUse">
      <stop
         stop-color="#8c825e"
         offset="26.7%"
         id="stop175" />
      <stop
         stop-color="#584c37"
         offset="100%"
         id="stop177" />
    </linearGradient>
    <linearGradient
       inkscape:collect="always"
       xlink:href="#B"
       id="linearGradient445"
       x1="61.321453"
       y1="18.528683"
       x2="61.321453"
       y2="4.8917918"
       gradientTransform="scale(0.25157067,3.9750261)"
       gradientUnits="userSpaceOnUse" />
    <linearGradient
       inkscape:collect="always"
       xlink:href="#C"
       id="linearGradient447"
       x1="111.38539"
       y1="18.086103"
       x2="111.38539"
       y2="4.4493861"
       gradientTransform="scale(0.25157674,3.9749303)"
       gradientUnits="userSpaceOnUse" />
    <linearGradient
       inkscape:collect="always"
       xlink:href="#B"
       id="linearGradient449"
       x1="138.71368"
       y1="6.5727105"
       x2="138.71368"
       y2="0.15491585"
       gradientTransform="scale(0.08944333,11.180263)"
       gradientUnits="userSpaceOnUse" />
    <linearGradient
       inkscape:collect="always"
       xlink:href="#B"
       id="linearGradient451"
       x1="178.54982"
       y1="9.4067068"
       x2="178.54982"
       y2="1.36527"
       gradientTransform="scale(0.12852019,7.7808787)"
       gradientUnits="userSpaceOnUse" />
    <linearGradient
       inkscape:collect="always"
       xlink:href="#B"
       id="linearGradient453"
       x1="44.746655"
       y1="29.218687"
       x2="44.746655"
       y2="0.68867147"
       gradientTransform="scale(0.39761631,2.5149874)"
       gradientUnits="userSpaceOnUse" />
    <linearGradient
       inkscape:collect="always"
       xlink:href="#F"
       id="linearGradient455"
       x1="96.145195"
       y1="16.028509"
       x2="96.145195"
       y2="8.8640862"
       gradientTransform="scale(0.22042837,4.5366211)"
       gradientUnits="userSpaceOnUse" />
    <linearGradient
       inkscape:collect="always"
       xlink:href="#B"
       id="linearGradient457"
       x1="113.11811"
       y1="11.467315"
       x2="113.11811"
       y2="4.5712276"
       gradientTransform="scale(0.15430825,6.4805348)"
       gradientUnits="userSpaceOnUse" />
    <linearGradient
       inkscape:collect="always"
       xlink:href="#B"
       id="linearGradient459"
       x1="79.610718"
       y1="13.465821"
       x2="79.610718"
       y2="6.1217799"
       gradientTransform="scale(0.22773632,4.3910431)"
       gradientUnits="userSpaceOnUse" />
    <linearGradient
       inkscape:collect="always"
       xlink:href="#B"
       id="linearGradient461"
       x1="189.07738"
       y1="9.8051624"
       x2="189.07738"
       y2="1.4893728"
       gradientTransform="scale(0.13336075,7.498458)"
       gradientUnits="userSpaceOnUse" />
    <linearGradient
       inkscape:collect="always"
       xlink:href="#B"
       id="linearGradient463"
       x1="57.0299"
       y1="27.816124"
       x2="57.0299"
       y2="4.180223"
       gradientTransform="scale(0.37430362,2.6716279)"
       gradientUnits="userSpaceOnUse" />
    <linearGradient
       inkscape:collect="always"
       xlink:href="#F"
       id="linearGradient465"
       x1="12.210043"
       y1="34.40472"
       x2="12.210043"
       y2="9.9846354"
       gradientTransform="scale(0.47026353,2.1264673)"
       gradientUnits="userSpaceOnUse" />
    <linearGradient
       inkscape:collect="always"
       xlink:href="#C"
       id="linearGradient467"
       x1="70.690529"
       y1="33.384663"
       x2="70.690529"
       y2="13.85125"
       gradientTransform="scale(0.45757489,2.1854346)"
       gradientUnits="userSpaceOnUse" />
    <linearGradient
       inkscape:collect="always"
       xlink:href="#B"
       id="linearGradient469"
       x1="65.716782"
       y1="28.328083"
       x2="65.716782"
       y2="3.4588909"
       gradientTransform="scale(0.38143923,2.6216496)"
       gradientUnits="userSpaceOnUse" />
    <linearGradient
       inkscape:collect="always"
       xlink:href="#K"
       id="linearGradient471"
       x1="75.72892"
       y1="9.9053221"
       x2="75.72892"
       y2="2.1417012"
       gradientTransform="scale(0.13871122,7.2092224)"
       gradientUnits="userSpaceOnUse" />
    <linearGradient
       inkscape:collect="always"
       xlink:href="#L"
       id="linearGradient473"
       x1="148.26662"
       y1="9.7163382"
       x2="148.26662"
       y2="0"
       gradientTransform="scale(0.13160995,7.5982097)"
       gradientUnits="userSpaceOnUse" />
    <linearGradient
       inkscape:collect="always"
       xlink:href="#K"
       id="linearGradient475"
       x1="195.2197"
       y1="10.662265"
       x2="195.2197"
       y2="4.3486166"
       gradientTransform="scale(0.14920114,6.7023616)"
       gradientUnits="userSpaceOnUse" />
    <linearGradient
       inkscape:collect="always"
       xlink:href="#L"
       id="linearGradient477"
       x1="55.117176"
       y1="27.723978"
       x2="55.117176"
       y2="1.1725601"
       gradientTransform="scale(0.38942547,2.5678854)"
       gradientUnits="userSpaceOnUse" />
    <linearGradient
       inkscape:collect="always"
       xlink:href="#U"
       id="linearGradient479"
       x1="28.435173"
       y1="29.262505"
       x2="29.637072"
       y2="29.262505"
       gradientTransform="scale(0.8489555,1.177918)"
       gradientUnits="userSpaceOnUse" />
    <linearGradient
       inkscape:collect="always"
       xlink:href="#W"
       id="linearGradient481"
       x1="38.076839"
       y1="42.729542"
       x2="38.726364"
       y2="42.216621"
       gradientTransform="scale(0.87347547,1.1448518)"
       gradientUnits="userSpaceOnUse" />
    <linearGradient
       inkscape:collect="always"
       xlink:href="#W"
       id="linearGradient483"
       x1="19.053661"
       y1="50.437687"
       x2="19.704586"
       y2="49.923664"
       gradientTransform="scale(0.87291876,1.145582)"
       gradientUnits="userSpaceOnUse" />
    <linearGradient
       inkscape:collect="always"
       xlink:href="#W"
       id="linearGradient485"
       x1="16.42573"
       y1="22.250618"
       x2="17.075817"
       y2="21.737255"
       gradientTransform="scale(0.8727574,1.1457938)"
       gradientUnits="userSpaceOnUse" />
    <linearGradient
       inkscape:collect="always"
       xlink:href="#W"
       id="linearGradient487"
       x1="25.96162"
       y1="36.24456"
       x2="36.630169"
       y2="27.819801"
       gradientTransform="scale(0.77173247,1.2957858)"
       gradientUnits="userSpaceOnUse" />
    <linearGradient
       inkscape:collect="always"
       xlink:href="#U"
       id="linearGradient489"
       x1="15.621059"
       y1="44.356144"
       x2="17.22574"
       y2="44.356144"
       gradientTransform="scale(0.87253285,1.1460887)"
       gradientUnits="userSpaceOnUse" />
  </defs>
  <symbol
     id="Y"
     overflow="visible"
     transform="translate(-0.49999995,-0.49999995)">
    <g
       stroke="none"
       fill-rule="nonzero"
       id="g274">
      <path
         d="m 26.065,71.757 c -0.344,-0.834 0.174,-39.512 0.174,-39.512 l 0.883,-17.826 0.023,57.34 c 0,-0.001 -0.736,0.834 -1.081,-0.001 z"
         fill="url(#A)"
         id="path182"
         style="fill:url(#A)" />
      <g
         fill="#5e8952"
         id="g190">
        <path
           d="m 32.732,33.743 -2.413,9.092 -1.372,6.346 -0.65,3.171 0.165,-4.275 0.154,-5.232 0.297,-4.335 -0.336,4.293 -0.315,5.307 -0.101,3.635 -0.039,-5.4 -0.181,-5.32 -0.11,11.686 -0.228,6.003 0.401,13.862 c 0.075,0.05 0.489,0.578 0.637,0.623 0.174,0.051 0.233,-0.19 0.301,-0.294 0.068,-0.104 -0.596,-11.341 -0.567,-13.816 l 0.09,-5.357 c 0.015,-1.294 0.443,-3.446 0.443,-3.446 l 0.712,-3.607 1.248,-5.454 c 0,0 0.955,-3.992 1.919,-7.393 l 1.678,-6.093 -1.733,6.009 z"
           id="path184" />
        <path
           d="m 27.999,72.599 c 0.003,0.004 0.006,-0.003 0.006,-0.023 -0.014,-0.009 -0.02,-0.006 -0.006,0.024 z m -9.519,-45.773 -1.956,9.202 -1.053,6.406 -0.492,3.2 -0.05,-4.278 -0.105,-5.232 0.079,-4.346 -0.12,4.306 -0.053,5.314 0.082,3.637 -0.308,-5.39 -0.448,-5.306 0.475,11.677 0.072,6.008 1.089,13.823 c 0.077,0.046 0.517,0.554 0.667,0.589 0.179,0.045 0.225,-0.2 0.288,-0.307 0.063,-0.107 -1.162,-11.297 -1.256,-13.771 l -0.178,-5.353 c -0.05,-1.293 0.272,-3.464 0.272,-3.464 l 0.53,-3.639 0.976,-5.509 c 0,0 0.754,-4.035 1.548,-7.481 l 1.372,-6.169 -1.433,6.082 z"
           id="path186" />
        <path
           d="m 15.687,65.871 c 0.003,0.006 0.005,-0.003 0.005,-0.024 -0.013,-0.011 -0.018,-0.006 -0.005,0.024 z M 5.261,14.1 c 0,0 3.457,10.615 4.538,15.187 1.081,4.572 5.576,22.617 4.657,44.81 0.267,1.509 0.655,0.282 0.655,0.282 C 15.907,54.144 13.246,42.508 11.108,33.154 L 9.161,25.837 C 8.195,22.424 5.261,14.098 5.261,14.098 Z m 26.393,3.723 -2.689,8.048 c -3.953,11.42 -9.361,27.063 -11.119,46.247 l -0.617,0.248 c 1.798,-19.579 7.282,-35.437 11.287,-47.01 l 4.503,-12.779 -1.367,5.246 z"
           id="path188" />
      </g>
      <path
         d="m 15.612,35.277 c 0.916,-8.088 1.53,-15.832 1.53,-15.832 L 15.15,35.131 c -1.093,8.614 -1.273,17.861 -1.398,19.37 -0.238,2.941 0.647,19.151 0.647,19.151 l 0.324,-1.513 -0.244,-17.79 C 14.48,54.347 14.6,44.142 15.613,35.277 Z"
         fill="url(#B)"
         id="path192"
         style="fill:url(#linearGradient445)" />
      <path
         d="m 28.208,33.517 c 0.917,-8.086 1.53,-15.831 1.53,-15.831 L 27.745,33.37 c -1.093,8.613 -1.273,17.859 -1.397,19.37 -0.238,2.944 0.646,19.151 0.646,19.151 l 0.326,-1.513 -0.247,-17.79 c 0,0 0.121,-10.208 1.135,-19.07 z"
         fill="url(#C)"
         id="path194"
         style="fill:url(#linearGradient447)" />
      <path
         d="M 15.844,73.857 15.7,31.033 14.981,11.71 14.96,73.857 c 0.053,0.424 0.883,0 0.883,0 z"
         fill="url(#D)"
         id="path196"
         style="fill:url(#D)" />
      <g
         fill="url(#B)"
         id="g202"
         style="fill:url(#linearGradient453)">
        <path
           d="M 12.12,73.326 12.211,23.989 12.677,1.732 12.69,73.325 c 0.06,0.358 -0.57,0.002 -0.57,0.002 z"
           id="path198"
           style="fill:url(#linearGradient449)" />
        <path
           d="M 23.464,72.768 23.296,29.946 22.459,10.623 22.436,72.768 c -0.093,0.955 1.027,0 1.027,0 z"
           id="path200"
           style="fill:url(#linearGradient451)" />
      </g>
      <path
         d="m 19.619,30.616 -0.832,-12.328 1.002,12.213 c 0.547,6.706 0.766,13.91 0.837,15.09 0.137,2.291 0.066,14.936 0.066,14.936 L 20.542,59.352 20.348,45.48 c 0.002,0 -0.205,-7.96 -0.728,-14.862 z"
         fill="url(#E)"
         id="path204"
         style="fill:url(#E)" />
      <path
         d="m 21.697,72.708 c -0.171,-0.057 -0.321,-0.655 -0.233,-0.409 0.088,0.246 -0.953,-16.826 -1.032,-18.799 -0.079,-1.973 0.023,-5.513 0.103,-7.358 0.08,-1.845 0.62,-5.929 0.62,-5.929 v 2.456 c 0,0 -0.34,2.36 -0.311,4.086 l 0.102,7.15 c 0.057,3.301 1.097,18.252 1.034,18.394 -0.063,0.142 -0.112,0.469 -0.283,0.409 z"
         fill="url(#F)"
         id="path206"
         style="fill:url(#linearGradient455)" />
      <path
         d="m 20.53,30.288 0.114,-7.939 -0.199,7.866 -0.05,9.713 0.31,9.59 0.041,-0.758 -0.221,-8.913 c 0.002,0 -0.084,-5.118 0.008,-9.56 z"
         fill="url(#G)"
         id="path208"
         style="fill:url(#G)" />
      <path
         d="m 21.327,39.002 c 1.722,-7.285 2.905,-14.273 2.905,-14.273 l -3.73,14.132 c -2.033,7.758 -2.467,16.112 -2.707,17.473 -0.457,2.654 -0.138,17.189 0.161,17.328 0.299,0.139 1.333,-1.36 1.333,-1.36 L 19.081,56.217 c 0,0.003 0.334,-9.229 2.247,-17.213 z"
         fill="url(#H)"
         id="path210"
         style="fill:url(#H)" />
      <path
         d="m 15.383,39.741 c 1.034,-7.294 1.753,-14.29 1.753,-14.29 l -2.227,14.155 c -1.212,7.77 -1.509,16.124 -1.655,17.488 -0.279,2.654 -0.179,17.187 -0.008,17.325 0.171,0.138 0.774,-1.367 0.774,-1.367 L 13.994,56.967 c 0,0 0.246,-9.231 1.39,-17.226 z"
         fill="url(#I)"
         id="path212"
         style="fill:url(#I)" />
      <g
         fill="url(#B)"
         id="g220"
         style="fill:url(#linearGradient463)">
        <path
           d="M 17.951,73.989 C 18.09,73.258 17.783,43.419 17.783,43.419 L 16.946,29.624 16.923,73.989 c -0.002,0 0.889,0.732 1.027,0 z"
           id="path214"
           style="fill:url(#linearGradient457)" />
        <path
           d="m 18.043,36.302 -0.749,-9.421 0.971,9.33 c 0.533,5.13 0.616,10.632 0.683,11.525 0.112,1.748 -0.321,11.393 -0.321,11.393 l -0.15,-0.896 0.118,-10.584 c 0.002,0.003 -0.061,-6.075 -0.549,-11.344 z"
           id="path216"
           style="fill:url(#linearGradient459)" />
        <path
           d="m 24.831,73.324 -0.17,-42.825 0.621,-19.331 0.488,62.144 c -0.138,0.469 -0.939,0.012 -0.939,0.012 z"
           id="path218"
           style="fill:url(#linearGradient461)" />
      </g>
      <path
         d="m 0,21.232 c 0,0 3.738,8.959 4.941,12.844 1.203,3.885 6.179,19.204 5.87,38.455 0.307,1.287 0.659,0.202 0.659,0.202 0.242,-17.546 -2.73,-27.44 -5.119,-35.394 0,0 -1.081,-3.313 -2.141,-6.204 C 3.15,28.244 0,21.233 0,21.233 Z"
         fill="url(#F)"
         id="path222"
         style="fill:url(#linearGradient465)" />
      <path
         d="m 36.044,34.02 -1.557,5.735 c -2.292,8.133 -5.433,19.278 -6.227,33.039 l -0.381,0.166 c 0.812,-14.045 3.995,-25.341 6.322,-33.585 l 2.616,-9.104 -0.771,3.75 z"
         fill="url(#C)"
         id="path224"
         style="fill:url(#linearGradient467)" />
      <path
         d="m 33.395,14.218 c 0,0 -3.16,10.095 -4.162,14.481 -1.003,4.377 -5.148,21.668 -4.542,43.498 -0.25,1.456 -0.582,0.217 -0.582,0.217 -0.515,-19.898 1.95,-31.067 3.931,-40.043 l 1.791,-6.997 c 0.886,-3.262 3.563,-11.157 3.563,-11.157 z"
         fill="url(#J)"
         id="path226"
         style="fill:url(#J)" />
      <path
         d="m 29.809,9.068 c 0,0 -3.282,11.393 -4.308,16.302 -1.029,4.901 -5.295,24.27 -4.421,48.091 -0.252,1.617 -0.619,0.299 -0.619,0.299 C 19.705,52.049 22.23,39.559 24.26,29.519 l 1.848,-7.852 C 27.025,18.005 29.81,9.07 29.81,9.07 Z"
         fill="url(#B)"
         id="path228"
         style="fill:url(#linearGradient469)" />
      <path
         d="M 10.975,71.091 C 11.195,70.377 10.81,32.744 10.81,32.744 L 9.99,15.44 9.966,71.091 c 0,0 0.789,0.717 1.009,0 z"
         fill="url(#K)"
         id="path230"
         style="fill:url(#linearGradient471)" />
      <path
         d="M 19,73.353 C 18.633,72.287 19.186,22.805 19.186,22.805 L 20.129,0 20.153,73.353 c 0,0 -0.786,1.066 -1.153,0 z"
         fill="url(#L)"
         id="path232"
         style="fill:url(#linearGradient473)" />
      <path
         d="m 28.727,71.182 -0.071,-28.963 0.616,-13.073 0.326,42.027 c 0.002,0 -0.853,0.645 -0.87,0.009 z"
         fill="url(#K)"
         id="path234"
         style="fill:url(#linearGradient475)" />
      <path
         d="m 1.084,31.777 1.722,5.733 c 2.536,8.137 6.011,19.283 6.888,33.043 l 0.422,0.163 C 9.22,56.675 5.698,45.378 3.126,37.132 L 0.23,28.028 Z"
         fill="url(#M)"
         id="path236"
         style="fill:url(#M)" />
      <path
         d="m 38.276,38.208 -1.681,4.799 c -2.471,6.808 -5.851,16.136 -7.027,27.551 l -0.376,0.149 c 1.2,-11.646 4.628,-21.103 7.133,-28.003 l 2.812,-7.621 -0.862,3.126 z"
         fill="url(#N)"
         id="path238"
         style="fill:url(#N)" />
      <path
         d="m 25.756,8.989 -2.042,9.309 c -3.06,13.235 -7.245,31.367 -6.677,52.485 l -0.688,0.409 C 15.774,49.638 20.018,31.259 23.118,17.843 L 26.636,3.011 25.754,8.989 Z"
         fill="url(#L)"
         id="path240"
         style="fill:url(#linearGradient477)" />
      <path
         d="m 16.964,7.435 -0.669,9.969 c -1.098,14.185 -2.599,33.618 0.878,55.945 l -0.603,0.47 C 13.026,51.035 14.546,31.335 15.661,16.958 l 1.316,-15.903 -0.012,6.38 z"
         fill="url(#O)"
         id="path242"
         style="fill:url(#O)" />
      <path
         d="m 23.172,48.214 c 0.371,0.384 0.26,0.592 0.16,0.741 -0.105,0.154 -0.195,0.2 -0.717,-0.022 -0.388,-0.17 -0.851,-0.422 -1.323,-0.744 -0.556,-0.377 -0.704,-0.556 -1.007,-0.889 -0.303,-0.333 -0.401,-0.688 -0.311,-0.821 0.076,-0.116 0.163,-0.256 0.497,-0.151 0.443,0.141 0.938,0.382 1.569,0.81 0.495,0.337 0.831,0.765 1.133,1.076 z"
         fill="url(#P)"
         id="path244"
         style="fill:url(#P)" />
      <path
         d="m 31.937,51.495 c 0.304,-0.253 0.482,-0.145 0.606,-0.052 0.131,0.098 0.17,0.174 0,0.56 a 5.19,5.19 0 0 1 -0.578,0.957 c -0.297,0.394 -0.438,0.493 -0.707,0.695 -0.269,0.202 -0.556,0.245 -0.669,0.161 -0.098,-0.075 -0.213,-0.155 -0.137,-0.404 0.105,-0.332 0.292,-0.693 0.629,-1.142 0.265,-0.355 0.611,-0.572 0.858,-0.776 z"
         fill="url(#Q)"
         id="path246"
         style="fill:url(#Q)" />
      <path
         d="m 6.18,46.542 c 0.26,-0.301 0.453,-0.22 0.591,-0.148 0.138,0.072 0.194,0.144 0.088,0.551 A 5.11,5.11 0 0 1 6.441,47.983 C 6.213,48.422 6.087,48.54 5.855,48.783 5.623,49.026 5.345,49.112 5.219,49.048 5.112,48.992 4.985,48.93 5.02,48.672 5.069,48.328 5.196,47.94 5.457,47.443 c 0.205,-0.389 0.511,-0.66 0.724,-0.9 z"
         fill="url(#R)"
         id="path248"
         style="fill:url(#R)" />
      <path
         d="m 16.41,36.166 c 0.238,-0.285 0.397,-0.22 0.515,-0.158 0.118,0.062 0.161,0.125 0.052,0.503 -0.081,0.28 -0.218,0.619 -0.401,0.969 -0.215,0.41 -0.329,0.524 -0.539,0.755 -0.21,0.231 -0.453,0.325 -0.557,0.269 -0.089,-0.045 -0.199,-0.097 -0.154,-0.336 0.055,-0.32 0.178,-0.677 0.425,-1.145 0.192,-0.365 0.467,-0.627 0.659,-0.856 z"
         fill="url(#S)"
         id="path250"
         style="fill:url(#S)" />
      <path
         d="m 6.027,36.883 c 0.195,-0.227 0.338,-0.169 0.438,-0.117 0.106,0.056 0.144,0.106 0.06,0.413 -0.062,0.228 -0.169,0.499 -0.316,0.78 -0.173,0.33 -0.266,0.421 -0.44,0.603 -0.174,0.182 -0.378,0.25 -0.471,0.205 -0.08,-0.043 -0.173,-0.087 -0.143,-0.284 0.039,-0.257 0.135,-0.547 0.332,-0.921 0.155,-0.295 0.381,-0.497 0.54,-0.68 z"
         fill="url(#T)"
         id="path252"
         style="fill:url(#T)" />
      <path
         d="m 24.737,33.864 c 0.14,-0.152 0.252,-0.103 0.334,-0.061 0.082,0.042 0.115,0.084 0.067,0.294 a 2.24,2.24 0 0 1 -0.208,0.539 c -0.118,0.224 -0.186,0.284 -0.311,0.405 -0.125,0.121 -0.281,0.161 -0.355,0.121 -0.063,-0.032 -0.136,-0.068 -0.123,-0.205 a 1.72,1.72 0 0 1 0.213,-0.637 c 0.103,-0.202 0.269,-0.337 0.383,-0.457 z"
         fill="url(#U)"
         id="path254"
         style="fill:url(#linearGradient479)" />
      <path
         d="m 14.736,43.483 c 0.046,-0.34 0.219,-0.373 0.35,-0.387 0.137,-0.012 0.207,0.014 0.318,0.361 0.084,0.26 0.152,0.59 0.186,0.954 0.039,0.427 0.006,0.573 -0.045,0.861 -0.051,0.288 -0.208,0.482 -0.328,0.493 -0.103,0.01 -0.221,0.028 -0.315,-0.181 -0.125,-0.273 -0.215,-0.616 -0.26,-1.099 -0.036,-0.383 0.055,-0.726 0.094,-1.001 z"
         fill="#231000"
         id="path256" />
      <path
         d="m 24.946,23.903 c 0.047,-0.341 0.22,-0.373 0.352,-0.386 0.132,-0.013 0.203,0.013 0.318,0.362 0.084,0.258 0.149,0.59 0.186,0.955 0.039,0.427 0.007,0.573 -0.046,0.858 -0.053,0.285 -0.209,0.483 -0.328,0.494 -0.102,0.01 -0.221,0.026 -0.315,-0.181 -0.124,-0.276 -0.213,-0.616 -0.259,-1.101 -0.036,-0.383 0.055,-0.723 0.093,-1.001 z"
         fill="url(#V)"
         id="path258"
         style="fill:url(#V)" />
      <path
         d="m 26.765,49.219 c 0.093,-0.256 0.229,-0.253 0.33,-0.242 0.108,0.013 0.155,0.045 0.183,0.333 0.021,0.216 0.016,0.483 -0.016,0.771 -0.041,0.338 -0.091,0.445 -0.179,0.661 -0.088,0.216 -0.238,0.336 -0.329,0.326 -0.082,-0.009 -0.174,-0.015 -0.212,-0.191 -0.049,-0.235 -0.06,-0.513 -0.013,-0.897 0.036,-0.304 0.16,-0.552 0.237,-0.761 z"
         fill="#231000"
         id="path260" />
      <g
         fill="url(#W)"
         id="g268"
         style="fill:url(#linearGradient487)">
        <path
           d="m 32.888,48.142 c -0.113,-0.246 -0.013,-0.34 0.068,-0.402 0.081,-0.062 0.14,-0.076 0.363,0.109 0.163,0.136 0.349,0.333 0.525,0.562 0.209,0.27 0.247,0.38 0.336,0.594 0.089,0.214 0.066,0.409 -0.006,0.466 -0.064,0.049 -0.136,0.109 -0.285,0.008 -0.199,-0.131 -0.402,-0.323 -0.637,-0.63 -0.189,-0.238 -0.271,-0.507 -0.364,-0.708 z"
           id="path262"
           style="fill:url(#linearGradient481)" />
        <path
           d="m 16.26,57.004 c -0.112,-0.248 -0.013,-0.34 0.069,-0.405 0.082,-0.065 0.14,-0.075 0.364,0.111 a 3.61,3.61 0 0 1 0.526,0.563 c 0.209,0.268 0.248,0.381 0.336,0.594 0.088,0.213 0.066,0.409 -0.006,0.466 -0.065,0.051 -0.137,0.109 -0.286,0.011 -0.199,-0.132 -0.401,-0.325 -0.639,-0.633 -0.184,-0.239 -0.27,-0.507 -0.362,-0.708 z"
           id="path264"
           style="fill:url(#linearGradient483)" />
        <path
           d="m 13.964,24.719 c -0.112,-0.248 -0.013,-0.342 0.069,-0.405 0.082,-0.063 0.14,-0.076 0.364,0.109 0.165,0.139 0.348,0.333 0.526,0.563 0.207,0.269 0.247,0.382 0.334,0.595 0.087,0.213 0.067,0.409 -0.006,0.466 -0.063,0.049 -0.136,0.109 -0.285,0.011 -0.199,-0.135 -0.401,-0.325 -0.639,-0.631 -0.186,-0.241 -0.271,-0.508 -0.362,-0.708 z"
           id="path266"
           style="fill:url(#linearGradient485)" />
      </g>
      <path
         d="m 13.68,50.363 c -0.114,-0.248 -0.013,-0.342 0.068,-0.405 0.081,-0.063 0.14,-0.075 0.362,0.109 0.165,0.139 0.349,0.336 0.528,0.564 0.207,0.269 0.246,0.381 0.334,0.595 0.088,0.214 0.067,0.411 -0.008,0.468 -0.062,0.048 -0.134,0.107 -0.284,0.009 -0.199,-0.133 -0.402,-0.324 -0.638,-0.632 -0.186,-0.243 -0.271,-0.508 -0.362,-0.71 z"
         fill="url(#U)"
         id="path270"
         style="fill:url(#linearGradient489)" />
      <path
         d="m 3.803,31.099 c -0.086,-0.197 0.011,-0.293 0.089,-0.36 0.078,-0.067 0.134,-0.087 0.323,0.039 0.14,0.094 0.297,0.234 0.44,0.406 0.171,0.2 0.201,0.292 0.266,0.461 0.065,0.169 0.034,0.344 -0.037,0.405 C 4.822,32.102 4.753,32.164 4.623,32.102 4.452,32.018 4.281,31.884 4.085,31.656 3.933,31.476 3.873,31.258 3.803,31.101 Z"
         fill="url(#X)"
         id="path272"
         style="fill:url(#X)" />
    </g>
  </symbol>
  <g
     id="g443"
     transform="matrix(6.6800727,0,0,6.6800727,28.419943,2.6599639)">
    <use
       xlink:href="#Y"
       x="0.5"
       y="0.5"
       id="use2"
       transform="translate(0.49999995,0.49999995)" />
    <use
       xlink:href="#Y"
       x="0.5"
       y="0.5"
       id="use389"
       transform="translate(28.5,0.49999995)" />
  </g>
</svg>
