<svg id="svg" version="1.1" xmlns="http://www.w3.org/2000/svg" xmlns:xlink="http://www.w3.org/1999/xlink" width="400" height="400" viewBox="0, 0, 400,400"><g id="svgg"><path id="path0" d="M214.072 3.136 C 212.584 4.464,212.043 12.135,213.400 12.655 C 213.730 12.782,214.000 13.136,214.000 13.443 C 214.000 13.749,214.270 14.000,214.600 14.000 C 214.930 14.000,215.200 14.270,215.200 14.600 C 215.200 15.062,215.716 15.200,217.447 15.200 C 219.581 15.200,219.681 15.245,219.452 16.100 C 219.319 16.595,219.208 23.868,219.205 32.262 L 219.200 47.524 217.633 47.314 C 216.338 47.140,215.975 47.250,215.537 47.952 C 215.205 48.483,214.595 48.800,213.904 48.800 L 212.800 48.800 212.800 52.800 C 212.800 56.089,212.907 56.800,213.400 56.800 C 213.730 56.800,214.000 57.070,214.000 57.400 C 214.000 57.853,214.489 58.000,216.000 58.000 L 218.000 58.000 217.987 72.700 C 217.977 84.992,217.878 87.527,217.387 88.176 C 216.891 88.832,216.800 91.743,216.800 106.932 C 216.800 123.594,216.749 124.949,216.100 125.423 C 215.454 125.895,215.390 127.346,215.274 144.058 C 215.182 157.269,215.019 162.336,214.674 162.752 C 214.327 163.169,214.139 169.405,213.973 185.981 C 213.848 198.443,213.623 208.840,213.471 209.085 C 213.320 209.330,213.019 217.421,212.803 227.065 C 212.147 256.342,211.652 274.818,211.196 287.000 C 210.958 293.380,210.583 307.510,210.364 318.400 C 210.145 329.290,209.791 345.760,209.578 355.000 C 209.203 371.323,209.379 382.616,210.016 383.010 C 210.187 383.116,210.442 381.627,210.582 379.701 C 210.722 377.776,211.014 373.899,211.232 371.086 C 211.450 368.274,211.796 361.344,212.000 355.686 C 212.204 350.029,212.556 343.240,212.782 340.600 C 213.009 337.960,213.387 331.300,213.623 325.800 C 213.859 320.300,214.209 313.820,214.401 311.400 C 214.593 308.980,214.770 304.570,214.796 301.600 C 214.822 298.630,215.006 294.760,215.205 293.000 C 215.405 291.240,215.757 285.120,215.989 279.400 C 216.220 273.680,216.694 264.320,217.040 258.600 C 217.387 252.880,217.810 243.250,217.980 237.200 C 218.165 230.653,218.474 225.744,218.745 225.074 C 219.058 224.299,219.200 219.072,219.200 208.318 C 219.200 193.894,219.254 192.649,219.900 192.177 C 220.546 191.705,220.611 190.238,220.735 173.334 C 220.834 159.974,220.997 154.926,221.335 154.717 C 221.675 154.507,221.830 149.499,221.912 136.174 C 222.006 120.749,222.115 117.828,222.612 117.331 C 223.112 116.831,223.200 114.045,223.200 98.716 C 223.200 82.008,223.251 80.651,223.900 80.177 C 224.546 79.705,224.610 78.245,224.729 61.375 C 224.836 46.190,224.955 42.988,225.429 42.514 C 225.849 42.094,226.000 40.866,225.999 37.871 L 225.998 33.800 229.626 33.929 C 233.562 34.069,235.200 33.244,235.200 31.123 C 235.200 30.664,235.515 30.058,235.900 29.776 C 236.393 29.416,236.600 28.714,236.600 27.400 C 236.600 26.086,236.393 25.384,235.900 25.024 C 235.491 24.724,235.200 23.990,235.200 23.256 C 235.200 22.406,235.006 22.000,234.600 22.000 C 234.270 22.000,234.000 21.730,234.000 21.400 C 234.000 20.907,233.289 20.800,230.000 20.800 L 226.000 20.800 226.000 14.000 C 226.000 8.391,225.900 7.200,225.432 7.200 C 225.119 7.200,224.745 6.660,224.600 6.000 C 224.455 5.340,224.081 4.800,223.768 4.800 C 223.456 4.800,223.200 4.440,223.200 4.000 C 223.200 3.556,222.933 3.200,222.600 3.200 C 222.270 3.200,222.000 2.930,222.000 2.600 C 222.000 1.351,215.586 1.784,214.072 3.136 M144.000 8.000 C 143.560 8.440,142.930 8.800,142.600 8.800 C 142.205 8.800,142.000 9.195,142.000 9.957 C 142.000 10.617,141.742 11.213,141.400 11.345 C 140.941 11.521,140.800 12.274,140.800 14.545 C 140.800 16.815,140.941 17.569,141.400 17.745 C 141.730 17.871,142.000 18.251,142.000 18.587 C 142.000 18.924,142.249 19.200,142.553 19.200 C 142.858 19.200,143.201 19.560,143.316 20.000 C 143.466 20.575,143.862 20.800,144.720 20.800 C 145.446 20.800,146.011 21.051,146.160 21.440 C 146.347 21.928,146.833 22.046,148.203 21.937 L 150.000 21.794 150.000 24.848 C 150.000 27.075,150.163 28.037,150.600 28.400 C 151.069 28.789,151.200 29.888,151.200 33.416 C 151.200 38.260,151.369 39.200,152.243 39.200 C 152.691 39.200,152.800 40.224,152.800 44.413 C 152.800 48.677,152.909 49.667,153.400 49.855 C 153.770 49.997,154.000 50.605,154.000 51.443 C 154.000 52.383,153.815 52.800,153.400 52.800 C 153.070 52.800,152.800 53.070,152.800 53.400 C 152.800 53.733,152.444 54.000,152.000 54.000 C 151.560 54.000,151.200 54.251,151.200 54.557 C 151.200 54.864,150.930 55.218,150.600 55.345 C 148.144 56.287,150.660 63.193,153.460 63.197 L 155.120 63.200 155.260 66.832 C 155.371 69.722,155.543 70.570,156.100 70.977 C 156.702 71.417,156.800 72.188,156.800 76.501 C 156.800 80.588,156.911 81.557,157.400 81.745 C 157.887 81.932,158.000 82.875,158.000 86.759 C 158.000 90.346,158.141 91.684,158.565 92.108 C 158.973 92.516,159.168 94.031,159.265 97.570 C 159.378 101.671,159.514 102.549,160.100 102.977 C 160.694 103.411,160.800 104.162,160.800 107.957 C 160.800 111.560,160.916 112.470,161.400 112.655 C 161.889 112.843,162.000 113.807,162.000 117.855 C 162.000 121.904,162.111 122.868,162.600 123.055 C 163.086 123.242,163.200 124.180,163.200 128.010 C 163.200 132.999,163.367 134.000,164.199 134.000 C 164.551 134.000,164.776 134.910,164.914 136.900 C 165.024 138.495,165.381 140.970,165.707 142.400 C 166.033 143.830,166.417 146.080,166.560 147.400 C 166.703 148.720,167.078 151.330,167.393 153.200 C 168.475 159.622,169.819 168.586,170.601 174.600 C 170.915 177.020,171.192 179.090,171.215 179.200 C 171.237 179.310,171.411 179.040,171.600 178.600 C 172.084 177.475,172.074 162.506,171.585 155.800 C 171.360 152.720,170.985 147.590,170.750 144.400 C 170.515 141.210,170.205 135.578,170.061 131.885 C 169.893 127.552,169.638 125.068,169.344 124.885 C 169.055 124.705,168.834 122.783,168.743 119.672 C 168.621 115.489,168.493 114.684,167.900 114.352 C 167.292 114.012,167.200 113.305,167.200 108.968 C 167.200 104.899,167.089 103.932,166.600 103.745 C 166.112 103.557,166.000 102.598,166.000 98.586 C 166.000 94.738,165.868 93.526,165.400 93.057 C 164.959 92.616,164.789 91.468,164.760 88.729 C 164.717 84.737,164.441 83.138,163.800 83.178 C 163.558 83.193,163.356 81.149,163.288 78.001 C 163.197 73.741,163.070 72.800,162.588 72.800 C 162.101 72.800,162.000 71.908,162.000 67.587 C 162.000 63.323,161.891 62.333,161.400 62.145 C 160.920 61.960,160.792 61.024,160.760 57.457 C 160.718 52.750,160.457 51.073,159.800 51.276 C 159.551 51.353,159.358 49.399,159.288 46.100 C 159.197 41.753,159.071 40.800,158.588 40.800 C 158.128 40.800,158.001 40.212,158.006 38.100 C 158.010 36.241,158.130 35.587,158.391 36.000 C 159.486 37.732,167.200 36.844,167.200 34.986 C 167.200 34.410,167.432 34.000,167.757 34.000 C 168.525 34.000,168.800 33.103,168.800 30.600 C 168.800 28.097,168.525 27.200,167.757 27.200 C 167.405 27.200,167.200 26.759,167.200 26.000 C 167.200 25.302,166.989 24.800,166.696 24.800 C 166.419 24.800,165.968 24.440,165.693 24.000 C 164.946 22.804,159.054 22.804,158.307 24.000 C 157.439 25.391,156.908 24.905,156.712 22.540 C 156.590 21.068,156.294 20.111,155.862 19.796 C 155.329 19.406,155.200 18.596,155.200 15.647 C 155.200 12.033,155.185 11.976,154.100 11.500 C 153.495 11.234,152.856 10.788,152.680 10.508 C 152.504 10.229,152.099 10.000,151.780 10.000 C 151.461 10.000,151.200 9.730,151.200 9.400 C 151.200 9.070,150.951 8.800,150.647 8.800 C 150.342 8.800,149.999 8.440,149.884 8.000 C 149.704 7.310,149.338 7.200,147.237 7.200 C 145.333 7.200,144.625 7.375,144.000 8.000 M190.000 294.754 C 190.000 295.329,190.185 295.504,190.617 295.338 C 191.300 295.076,191.216 294.339,190.475 294.092 C 190.211 294.004,190.000 294.298,190.000 294.754 M190.979 306.259 C 190.659 309.242,191.029 315.498,191.615 317.041 C 191.827 317.597,192.003 319.795,192.007 321.926 C 192.011 324.057,192.199 327.420,192.425 329.400 C 192.651 331.380,193.087 335.700,193.395 339.000 C 194.557 351.485,194.858 354.300,195.404 357.800 C 196.060 361.997,196.638 366.836,197.220 373.000 C 197.448 375.420,197.898 379.560,198.219 382.200 C 198.540 384.840,198.804 388.260,198.807 389.800 C 198.810 391.340,198.970 392.849,199.163 393.153 C 200.120 394.665,200.202 372.824,199.261 367.000 C 199.047 365.680,198.659 362.260,198.398 359.400 C 198.136 356.540,197.670 352.625,197.361 350.700 C 197.053 348.775,196.796 345.805,196.791 344.100 C 196.785 342.312,196.447 339.742,195.991 338.027 C 195.462 336.038,195.200 333.769,195.200 331.173 C 195.200 328.508,195.013 326.932,194.602 326.146 C 194.164 325.305,194.004 323.641,194.002 319.887 C 194.000 315.714,193.890 314.733,193.400 314.545 C 192.918 314.360,192.800 313.464,192.800 309.983 C 192.800 303.651,191.535 301.065,190.979 306.259 " stroke="none" fill="#836414" fill-rule="evenodd"></path><path id="path1" d="M233.368 48.587 C 233.000 50.051,232.862 52.131,232.829 56.700 C 232.803 60.359,232.723 60.800,232.086 60.800 C 231.430 60.800,231.364 61.380,231.287 67.858 C 231.236 72.094,231.034 75.119,230.780 75.424 C 230.548 75.704,230.255 78.693,230.129 82.066 C 230.001 85.494,229.710 88.438,229.468 88.739 C 229.210 89.062,228.971 92.195,228.872 96.539 C 228.718 103.371,228.379 105.261,227.550 103.919 C 227.401 103.678,227.314 106.882,227.357 111.040 C 227.400 115.198,227.286 118.806,227.104 119.057 C 226.590 119.767,226.404 121.666,226.149 128.800 C 226.011 132.645,225.740 135.508,225.499 135.659 C 225.249 135.816,225.011 138.973,224.896 143.659 C 224.757 149.334,224.541 151.827,224.085 153.000 C 223.611 154.221,223.450 156.371,223.408 162.067 C 223.371 167.159,223.202 169.715,222.879 170.105 C 222.569 170.478,222.320 173.429,222.159 178.638 C 222.023 183.048,221.721 186.957,221.483 187.400 C 221.232 187.867,220.995 191.531,220.915 196.200 C 220.788 203.544,220.623 205.093,219.593 208.600 C 219.400 209.260,219.249 213.040,219.260 217.000 C 219.270 220.960,219.247 224.290,219.208 224.400 C 219.170 224.510,219.073 224.960,218.993 225.400 C 218.912 225.840,218.748 226.740,218.628 227.400 C 218.508 228.060,218.321 231.660,218.212 235.400 C 217.946 244.548,217.599 252.338,217.392 253.800 C 217.299 254.460,217.114 257.430,216.982 260.400 C 216.850 263.370,216.678 266.700,216.600 267.800 C 216.522 268.900,216.350 272.950,216.217 276.800 C 215.908 285.757,215.656 290.116,215.189 294.600 C 214.983 296.580,214.803 300.810,214.789 304.000 C 214.776 307.190,214.597 311.690,214.391 314.000 C 214.186 316.310,213.835 322.160,213.612 327.000 C 213.389 331.840,213.032 338.320,212.819 341.400 C 212.416 347.232,212.187 351.819,211.760 362.600 C 211.621 366.120,211.451 369.450,211.382 370.000 C 211.314 370.550,211.129 373.250,210.972 376.000 C 210.814 378.750,210.635 381.270,210.574 381.600 C 210.512 381.930,210.447 382.461,210.431 382.780 C 210.408 383.211,210.284 383.244,209.948 382.908 C 209.236 382.196,209.281 350.188,210.021 331.200 C 210.180 327.130,210.423 316.690,210.562 308.000 C 210.840 290.566,211.147 279.532,211.396 278.000 C 211.485 277.450,211.662 271.150,211.789 264.000 C 211.916 256.850,212.104 248.840,212.206 246.200 C 212.309 243.560,212.488 235.550,212.604 228.400 C 212.720 221.250,212.920 213.690,213.048 211.600 C 213.176 209.510,213.341 206.720,213.414 205.400 C 213.692 200.348,213.958 184.344,214.030 168.300 C 214.071 159.115,214.225 151.600,214.373 151.600 C 215.043 151.600,215.188 130.906,214.527 129.562 C 214.267 129.033,213.977 126.376,213.883 123.658 C 213.788 120.940,213.551 118.600,213.355 118.458 C 212.684 117.971,212.510 116.595,212.386 110.800 C 212.343 108.776,212.098 107.055,211.779 106.548 C 211.431 105.993,211.221 104.164,211.175 101.289 C 211.096 96.366,210.879 94.704,210.354 95.028 C 210.159 95.149,209.983 93.932,209.962 92.324 C 209.918 88.863,209.736 85.081,209.601 84.800 C 209.548 84.690,209.534 84.442,209.569 84.250 C 209.605 84.057,209.363 83.601,209.032 83.236 C 208.602 82.760,208.398 81.441,208.316 78.586 C 208.204 74.754,208.164 74.595,207.267 74.468 C 205.283 74.187,204.865 75.222,204.982 80.128 C 205.041 82.587,205.205 90.180,205.347 97.000 C 205.489 103.820,205.829 115.880,206.102 123.800 C 206.804 144.091,206.795 230.693,206.091 234.698 C 205.811 236.292,205.376 238.812,205.124 240.298 C 204.046 246.657,203.637 241.818,203.618 222.467 C 203.604 208.144,203.495 204.369,203.100 204.501 C 202.738 204.622,202.586 206.094,202.551 209.834 C 202.524 212.675,202.397 228.298,202.268 244.550 C 202.139 260.803,201.936 274.198,201.817 274.317 C 201.697 274.436,201.585 274.278,201.567 273.967 C 201.500 272.826,201.308 271.765,200.887 270.200 C 200.651 269.320,200.437 266.530,200.411 264.000 C 200.386 261.470,200.215 258.734,200.030 257.920 C 199.845 257.106,199.788 256.345,199.904 256.230 C 200.019 256.114,199.923 255.789,199.689 255.507 C 199.448 255.217,199.177 252.217,199.063 248.597 C 198.841 241.504,198.805 241.087,198.388 240.800 C 198.161 240.645,197.680 231.954,197.579 226.203 C 197.571 225.765,197.328 225.045,197.039 224.603 C 196.665 224.032,196.491 221.838,196.437 217.017 C 196.395 213.275,196.184 210.021,195.966 209.759 C 195.461 209.150,195.263 206.891,195.031 199.067 C 194.928 195.584,194.675 192.524,194.470 192.267 C 194.265 192.010,193.993 188.650,193.865 184.800 C 193.621 177.471,193.522 176.381,192.866 173.856 C 192.548 172.632,192.205 162.994,192.337 159.011 C 192.352 158.578,192.057 157.872,191.682 157.443 C 191.170 156.857,191.149 156.744,191.600 156.990 C 192.088 157.256,192.106 157.217,191.700 156.779 C 191.340 156.391,191.200 154.299,191.200 149.303 C 191.200 144.916,190.991 141.306,190.630 139.483 C 190.171 137.160,189.520 124.857,189.568 119.428 C 189.574 118.784,189.382 118.019,189.141 117.728 C 188.899 117.438,188.836 117.200,189.000 117.200 C 189.164 117.200,189.110 116.973,188.880 116.696 C 188.619 116.382,188.445 112.868,188.420 107.396 C 188.369 96.526,188.135 92.455,187.535 91.998 C 187.389 91.887,187.170 85.677,187.049 78.198 C 186.764 60.671,186.801 61.719,186.392 59.400 C 186.198 58.300,185.954 55.443,185.851 53.052 C 185.748 50.661,185.485 48.525,185.267 48.307 C 184.796 47.836,183.884 48.289,184.217 48.828 C 184.344 49.032,184.270 49.200,184.053 49.200 C 183.836 49.200,183.589 48.885,183.505 48.500 C 183.420 48.115,183.330 51.490,183.305 56.000 C 183.280 60.510,183.131 64.650,182.974 65.200 C 182.012 68.561,181.955 147.278,182.913 147.870 C 183.097 147.983,183.127 148.622,182.981 149.288 C 182.770 150.246,182.828 150.432,183.257 150.173 C 183.691 149.912,183.704 149.965,183.323 150.437 C 183.060 150.761,182.970 151.229,183.123 151.475 C 183.275 151.722,183.376 162.226,183.346 174.817 C 183.296 196.226,183.339 197.792,184.015 198.955 C 184.644 200.038,184.755 201.411,184.869 209.515 C 184.959 215.947,185.142 218.918,185.458 219.115 C 185.762 219.304,186.005 222.092,186.181 227.400 C 186.468 236.040,186.515 236.673,186.951 237.640 C 187.110 237.992,187.210 238.442,187.173 238.640 C 187.136 238.838,187.136 239.090,187.173 239.200 C 187.287 239.539,187.297 247.683,187.185 249.800 C 187.113 251.167,187.031 251.420,186.926 250.600 C 186.841 249.940,186.608 249.040,186.408 248.600 C 186.208 248.160,185.943 244.830,185.819 241.200 C 185.540 233.035,185.509 232.716,184.931 232.102 C 184.537 231.684,184.172 223.667,184.350 219.332 C 184.370 218.855,184.135 217.980,183.828 217.389 C 183.427 216.616,183.258 214.557,183.228 210.057 C 183.182 203.389,182.888 199.898,182.398 200.202 C 182.232 200.304,182.068 198.719,182.033 196.679 C 181.882 187.711,181.586 183.550,181.039 182.686 C 180.617 182.019,180.464 179.980,180.420 174.438 C 180.388 170.389,180.192 166.758,179.984 166.370 C 179.723 165.882,179.759 165.603,180.103 165.464 C 180.417 165.337,180.362 165.252,179.953 165.232 C 179.286 165.199,179.138 163.690,179.031 155.800 C 179.010 154.260,178.849 152.775,178.673 152.500 C 178.497 152.225,178.498 151.993,178.676 151.984 C 178.854 151.976,178.432 151.722,177.737 151.419 C 176.322 150.803,176.274 150.530,175.824 140.450 C 175.712 137.947,175.438 134.887,175.214 133.650 C 174.991 132.412,174.631 128.790,174.416 125.600 C 174.200 122.410,173.841 118.000,173.618 115.800 C 173.394 113.600,173.031 105.140,172.812 97.000 C 172.592 88.860,172.317 78.690,172.202 74.400 C 171.936 64.487,171.684 61.551,171.045 60.912 C 170.874 60.740,170.770 60.780,170.814 61.000 C 170.858 61.220,170.857 61.490,170.810 61.600 C 169.555 64.577,170.126 145.483,171.443 151.245 C 171.894 153.220,172.110 178.275,171.682 179.039 C 171.157 179.977,171.170 180.036,170.015 171.400 C 169.545 167.880,169.087 164.460,168.997 163.800 C 168.908 163.140,168.657 161.700,168.439 160.600 C 168.221 159.500,167.940 157.637,167.814 156.461 C 167.689 155.285,167.422 153.575,167.221 152.661 C 167.020 151.747,166.733 149.740,166.583 148.200 C 166.432 146.660,166.242 145.286,166.160 145.147 C 166.078 145.007,165.903 144.220,165.773 143.396 C 165.107 139.211,164.000 136.464,164.000 139.000 C 164.000 139.330,163.831 139.600,163.626 139.600 C 163.397 139.600,163.272 147.896,163.305 160.900 C 163.335 172.615,163.458 181.698,163.580 181.084 L 163.800 179.968 164.271 181.084 C 164.574 181.802,164.794 185.698,164.888 192.000 C 164.978 198.093,165.199 202.103,165.473 202.600 C 165.815 203.223,166.490 214.277,166.448 218.564 C 166.443 218.984,166.644 219.704,166.893 220.164 C 167.183 220.699,167.328 223.303,167.296 227.400 C 167.254 232.878,167.352 234.005,167.978 235.225 C 168.562 236.365,168.723 237.691,168.775 241.825 C 168.811 244.671,168.932 247.990,169.045 249.200 C 169.183 250.680,169.118 251.269,168.846 251.000 C 168.624 250.780,168.410 248.766,168.372 246.524 C 168.317 243.330,168.173 242.399,167.707 242.220 C 167.233 242.038,167.135 241.319,167.225 238.696 C 167.337 235.420,166.972 232.800,166.402 232.800 C 166.239 232.800,166.084 231.945,166.059 230.900 C 165.935 225.706,165.566 222.718,165.000 222.315 C 164.780 222.158,164.510 219.998,164.400 217.515 C 164.253 214.199,164.067 213.027,163.700 213.100 C 163.328 213.174,163.200 212.237,163.200 209.450 C 163.200 205.308,162.888 203.098,162.351 203.430 C 162.158 203.550,161.993 202.422,161.985 200.924 C 161.966 197.464,161.692 195.367,161.029 193.600 C 160.740 192.830,160.476 190.850,160.443 189.200 C 160.369 185.559,160.035 183.531,159.556 183.827 C 159.241 184.022,158.983 178.558,159.189 176.068 C 159.231 175.555,159.003 174.835,158.683 174.468 C 158.277 174.003,158.038 172.431,157.898 169.299 C 157.787 166.823,157.496 164.557,157.252 164.262 C 157.007 163.967,156.925 163.608,157.070 163.463 C 157.215 163.318,157.145 163.200,156.915 163.200 C 156.666 163.200,156.471 161.949,156.432 160.100 C 156.348 156.065,156.203 154.927,155.691 154.308 C 155.460 154.029,155.224 152.180,155.166 150.200 C 155.109 148.220,154.840 146.147,154.569 145.594 C 154.298 145.040,153.978 143.438,153.857 142.033 C 153.612 139.172,153.166 138.398,152.217 139.186 C 151.715 139.602,151.600 139.602,151.600 139.182 C 151.600 138.899,151.484 138.782,151.343 138.924 C 151.202 139.065,151.337 139.490,151.643 139.867 C 151.949 140.245,152.015 140.443,151.788 140.307 C 151.508 140.140,151.358 146.385,151.321 159.827 C 151.290 170.699,151.420 179.689,151.609 179.806 C 151.798 179.922,151.770 180.541,151.547 181.181 C 151.324 181.820,151.218 182.851,151.311 183.472 C 151.444 184.360,151.494 184.260,151.546 183.000 C 151.593 181.856,151.717 181.566,151.980 181.981 C 152.182 182.300,152.246 182.726,152.122 182.926 C 151.999 183.126,152.083 183.404,152.310 183.545 C 152.568 183.705,152.788 187.614,152.897 194.000 C 152.999 200.002,153.253 204.694,153.513 205.400 C 153.866 206.357,154.470 217.162,154.415 221.535 C 154.408 222.049,154.644 222.813,154.937 223.232 C 155.344 223.812,155.439 225.529,155.336 230.418 C 155.229 235.470,155.325 237.082,155.784 237.970 C 156.105 238.591,156.260 239.207,156.127 239.340 C 155.994 239.472,156.082 239.817,156.321 240.105 C 156.575 240.411,156.817 243.050,156.901 246.415 C 157.033 251.735,157.219 253.459,157.755 254.327 C 157.865 254.505,157.990 256.129,158.034 257.937 C 158.078 259.744,158.271 261.320,158.463 261.439 C 158.656 261.558,158.709 261.824,158.581 262.030 C 158.454 262.237,158.615 262.508,158.941 262.633 C 159.425 262.819,159.501 263.605,159.360 267.006 C 159.212 270.565,159.300 271.368,159.976 272.676 C 160.607 273.896,160.780 275.117,160.845 278.800 C 160.928 283.522,161.065 284.531,161.579 284.213 C 161.742 284.112,161.907 285.238,161.946 286.715 C 162.005 288.943,162.281 292.415,162.542 294.200 C 162.574 294.420,162.780 294.728,162.999 294.885 C 163.228 295.048,163.370 296.923,163.333 299.275 C 163.281 302.594,163.415 303.684,164.034 304.965 C 164.617 306.171,164.800 307.423,164.800 310.195 C 164.800 312.497,164.977 314.017,165.280 314.320 C 165.544 314.584,165.589 314.803,165.380 314.806 C 165.171 314.809,165.203 314.944,165.451 315.106 C 165.700 315.269,165.998 317.009,166.117 319.000 C 166.236 320.980,166.574 323.320,166.869 324.200 C 167.174 325.112,167.395 327.417,167.383 329.560 C 167.370 331.628,167.433 333.100,167.523 332.832 C 167.930 331.610,168.760 334.093,168.839 336.768 C 168.885 338.362,169.127 339.876,169.376 340.133 C 169.626 340.390,169.890 341.410,169.963 342.400 C 170.037 343.390,170.142 344.560,170.198 345.000 C 170.253 345.440,170.321 346.282,170.349 346.871 C 170.377 347.461,170.625 348.181,170.900 348.471 C 171.240 348.831,171.386 350.321,171.356 353.134 C 171.331 355.407,171.426 357.082,171.566 356.855 C 172.226 355.786,172.726 357.279,172.858 360.715 C 172.945 362.989,173.183 364.542,173.471 364.721 C 173.741 364.887,174.037 366.463,174.164 368.406 C 174.431 372.485,174.512 372.962,175.058 373.660 C 175.308 373.979,175.447 375.920,175.397 378.400 C 175.351 380.710,175.393 382.375,175.490 382.100 C 175.587 381.825,175.842 381.600,176.057 381.600 C 176.272 381.600,176.336 381.780,176.200 382.000 C 176.064 382.220,176.127 382.400,176.339 382.400 C 176.552 382.400,176.787 384.196,176.863 386.415 C 176.949 388.950,177.175 390.538,177.476 390.724 C 177.737 390.885,177.993 392.047,178.044 393.307 C 178.106 394.843,178.370 395.846,178.844 396.355 C 179.233 396.773,179.443 397.224,179.309 397.357 C 179.037 397.629,179.194 397.640,183.400 397.640 C 185.050 397.640,186.647 397.631,186.948 397.620 C 187.258 397.609,187.475 397.210,187.448 396.700 C 187.416 396.101,187.597 395.843,187.989 395.930 C 188.476 396.037,188.466 395.933,187.932 395.330 C 187.461 394.797,187.289 393.811,187.297 391.683 L 187.308 388.765 188.054 389.992 C 188.533 390.780,188.814 392.039,188.840 393.510 C 188.922 398.204,187.016 397.771,207.753 397.807 C 226.394 397.840,226.000 397.887,226.000 395.617 C 226.000 394.998,226.269 393.976,226.598 393.346 C 227.006 392.562,227.196 390.983,227.198 388.349 C 227.199 385.416,227.343 384.379,227.800 384.000 C 228.256 383.622,228.400 382.595,228.400 379.729 C 228.400 376.932,228.591 375.522,229.139 374.278 C 229.643 373.133,229.907 371.462,229.969 369.018 C 230.019 367.048,230.233 365.113,230.444 364.718 C 230.655 364.323,230.696 364.000,230.534 364.000 C 230.372 364.000,230.456 363.784,230.720 363.520 C 231.027 363.213,231.200 361.653,231.200 359.200 C 231.200 356.661,231.369 355.191,231.700 354.861 C 232.005 354.556,232.287 352.689,232.423 350.066 C 232.546 347.704,232.811 345.508,233.012 345.186 C 233.501 344.402,233.565 343.989,233.849 339.800 C 233.983 337.820,234.322 335.750,234.602 335.200 C 234.899 334.617,235.135 332.537,235.169 330.215 C 235.207 327.572,235.390 326.130,235.713 325.930 C 236.033 325.733,236.269 323.969,236.400 320.799 C 236.510 318.143,236.780 315.841,237.000 315.684 C 237.641 315.229,237.899 313.504,238.041 308.720 C 238.095 306.898,238.293 305.973,238.660 305.832 C 239.063 305.678,239.200 304.625,239.200 301.693 C 239.200 299.167,239.372 297.588,239.680 297.280 C 240.053 296.907,240.036 296.800,239.604 296.800 C 239.173 296.800,239.191 296.687,239.687 296.300 C 240.182 295.913,240.365 294.818,240.497 291.465 C 240.590 289.080,240.849 287.010,241.073 286.865 C 241.533 286.564,241.501 286.762,241.961 281.400 C 242.149 279.200,242.501 276.680,242.742 275.800 C 242.983 274.920,243.185 272.864,243.190 271.231 C 243.197 269.267,243.389 268.049,243.760 267.631 C 244.155 267.186,244.375 265.460,244.508 261.770 C 244.620 258.681,244.904 256.152,245.203 255.594 C 245.481 255.075,245.800 252.658,245.912 250.225 C 246.029 247.688,246.332 245.459,246.623 245.000 C 246.939 244.502,247.149 242.640,247.178 240.062 C 247.232 235.391,247.263 235.100,247.750 234.745 C 248.206 234.414,248.353 233.032,248.423 228.400 C 248.465 225.630,248.645 224.414,249.089 223.915 C 249.423 223.538,249.598 222.971,249.476 222.654 C 249.355 222.337,249.367 221.966,249.504 221.830 C 249.641 221.693,249.824 219.381,249.911 216.692 C 250.005 213.785,250.245 211.696,250.503 211.536 C 250.771 211.371,251.000 208.929,251.104 205.134 C 251.207 201.340,251.455 198.695,251.754 198.200 C 252.037 197.731,252.282 195.494,252.344 192.800 C 252.497 186.227,252.739 183.855,253.354 182.869 C 253.536 182.577,253.768 179.157,253.869 175.269 C 253.970 171.381,254.166 167.930,254.305 167.600 C 255.184 165.511,255.457 138.087,254.609 136.989 C 253.620 135.708,252.926 137.060,252.841 140.433 C 252.785 142.631,252.593 143.456,251.982 144.111 C 251.314 144.828,251.219 145.384,251.358 147.774 C 251.469 149.699,251.343 150.938,250.957 151.682 C 250.647 152.282,250.301 154.084,250.188 155.686 C 249.939 159.231,249.877 159.587,249.330 160.600 C 249.093 161.040,248.866 163.110,248.825 165.200 C 248.785 167.290,248.583 169.171,248.376 169.380 C 248.169 169.589,248.000 170.095,248.000 170.504 C 248.000 170.913,247.830 171.142,247.621 171.013 C 247.390 170.871,247.290 172.145,247.365 174.275 C 247.445 176.560,247.301 178.217,246.949 179.059 C 246.366 180.457,246.038 182.893,245.951 186.491 C 245.921 187.752,245.761 188.700,245.597 188.598 C 245.108 188.296,244.800 190.650,244.800 194.679 C 244.800 197.504,244.649 198.608,244.200 199.057 C 243.779 199.478,243.600 199.509,243.600 199.162 C 243.600 198.890,243.495 198.771,243.368 198.899 C 243.240 199.027,243.348 199.529,243.607 200.014 C 243.867 200.499,243.899 200.785,243.679 200.649 C 243.419 200.488,243.303 201.711,243.350 204.100 C 243.396 206.439,243.242 208.094,242.933 208.600 C 242.663 209.040,242.336 211.460,242.205 213.978 C 242.075 216.497,241.820 218.747,241.638 218.978 C 241.189 219.553,241.148 219.921,240.937 225.309 C 240.827 228.096,240.598 229.922,240.376 229.785 C 240.047 229.582,239.814 230.419,239.953 231.300 C 239.979 231.465,239.834 231.600,239.630 231.600 C 239.420 231.600,239.303 233.499,239.361 236.000 C 239.416 238.420,239.332 240.400,239.173 240.400 C 238.634 240.400,238.436 241.568,238.176 246.285 C 238.033 248.878,237.780 251.180,237.613 251.400 C 237.045 252.150,236.839 253.796,236.771 258.100 C 236.735 260.465,236.568 262.400,236.401 262.400 C 235.707 262.400,235.268 264.823,235.349 268.200 C 235.396 270.180,235.256 272.160,235.037 272.600 C 234.466 273.746,234.419 274.097,234.145 279.200 C 234.004 281.813,233.660 284.267,233.349 284.880 C 232.984 285.598,232.800 287.415,232.800 290.300 C 232.800 293.142,232.634 294.806,232.320 295.120 C 232.056 295.384,231.979 295.600,232.149 295.600 C 232.318 295.600,232.180 295.877,231.841 296.216 C 231.355 296.702,231.240 297.700,231.298 300.916 C 231.339 303.162,231.232 305.225,231.062 305.500 C 230.892 305.775,230.898 306.003,231.076 306.006 C 231.254 306.009,231.187 306.148,230.927 306.313 C 230.632 306.501,230.364 308.370,230.215 311.288 C 230.083 313.859,229.720 316.573,229.407 317.321 C 229.053 318.168,228.815 320.321,228.774 323.040 C 228.727 326.171,228.552 327.545,228.154 327.916 C 227.696 328.342,227.595 328.307,227.568 327.716 C 227.551 327.322,227.449 327.215,227.342 327.478 C 227.236 327.741,227.358 328.347,227.614 328.826 C 227.954 329.462,227.957 329.621,227.624 329.415 C 227.292 329.210,227.209 330.218,227.318 333.153 C 227.409 335.594,227.305 337.335,227.054 337.586 C 226.826 337.814,226.788 338.000,226.969 338.000 C 227.150 338.000,227.085 338.256,226.825 338.570 C 226.560 338.889,226.259 341.041,226.140 343.460 C 226.016 345.986,225.693 348.233,225.364 348.870 C 224.994 349.585,224.800 351.277,224.800 353.786 C 224.800 357.245,224.438 358.912,223.539 359.600 C 223.395 359.710,223.310 361.510,223.350 363.600 C 223.402 366.296,223.274 367.516,222.909 367.800 C 222.601 368.039,222.314 369.485,222.194 371.400 C 221.943 375.413,221.807 376.322,221.248 377.726 C 221.002 378.345,220.800 380.310,220.800 382.093 C 220.800 383.875,220.683 385.216,220.540 385.073 C 220.396 384.930,220.079 385.086,219.834 385.421 C 219.487 385.896,219.363 385.495,219.269 383.587 C 219.199 382.176,219.339 380.915,219.600 380.600 C 220.189 379.890,220.380 377.501,220.416 370.414 C 220.434 366.680,220.608 364.432,220.905 364.074 C 221.515 363.338,221.582 362.914,221.854 358.000 C 221.983 355.690,222.275 353.569,222.505 353.286 C 222.954 352.732,223.104 351.325,223.163 347.129 C 223.186 345.468,223.404 344.253,223.738 343.919 C 224.085 343.573,224.308 342.218,224.363 340.127 C 224.474 335.906,224.672 334.436,225.217 333.780 C 225.461 333.486,225.763 331.210,225.887 328.723 C 226.012 326.235,226.224 324.110,226.357 324.000 C 226.803 323.633,226.949 322.628,227.109 318.835 C 227.204 316.573,227.486 314.735,227.816 314.232 C 228.171 313.690,228.384 312.055,228.420 309.597 C 228.458 307.038,228.667 305.500,229.061 304.880 C 229.438 304.285,229.726 302.372,229.872 299.480 C 230.005 296.843,230.284 294.879,230.549 294.706 C 230.797 294.544,230.829 294.409,230.620 294.406 C 230.411 294.403,230.456 294.184,230.720 293.920 C 231.024 293.616,231.205 292.042,231.213 289.620 C 231.222 286.897,231.394 285.577,231.813 285.024 C 232.231 284.470,232.400 283.178,232.400 280.522 C 232.400 277.701,232.574 276.472,233.119 275.455 C 233.624 274.514,233.870 273.053,233.944 270.557 C 234.002 268.601,234.335 266.190,234.685 265.200 C 235.137 263.920,235.294 262.226,235.229 259.333 C 235.160 256.261,235.286 255.038,235.743 254.333 C 236.170 253.674,236.377 252.108,236.447 249.000 C 236.501 246.580,236.730 244.357,236.955 244.060 C 237.551 243.273,237.650 242.633,237.857 238.200 C 237.960 236.000,238.192 233.840,238.372 233.400 C 239.784 229.956,239.912 229.360,239.138 229.838 C 238.884 229.995,238.782 229.952,238.912 229.743 C 239.041 229.534,239.178 227.751,239.216 225.781 C 239.260 223.542,239.493 221.871,239.837 221.323 C 240.229 220.700,240.399 218.893,240.425 215.075 C 240.452 211.151,240.622 209.393,241.059 208.552 C 241.465 207.768,241.725 205.618,241.872 201.801 C 241.998 198.531,242.278 195.966,242.544 195.639 C 242.830 195.287,243.053 192.605,243.142 188.439 C 243.239 183.937,243.457 181.467,243.819 180.765 C 244.196 180.035,244.379 177.586,244.442 172.449 C 244.503 167.480,244.694 164.855,245.043 164.183 C 245.324 163.641,245.485 162.842,245.401 162.407 C 245.318 161.973,245.393 161.528,245.568 161.420 C 246.190 161.035,246.052 137.823,245.422 136.968 C 244.420 135.608,243.242 137.339,243.427 139.902 C 243.526 141.280,243.397 142.070,243.022 142.382 C 242.667 142.676,242.370 144.217,242.184 146.719 C 242.023 148.894,241.655 150.947,241.348 151.389 C 240.981 151.917,240.800 153.391,240.800 155.846 C 240.800 159.311,240.129 161.127,239.457 159.478 C 239.351 159.215,239.249 159.315,239.232 159.700 C 239.214 160.085,239.425 160.403,239.700 160.406 C 240.070 160.411,240.079 160.489,239.734 160.709 C 239.447 160.891,239.273 162.106,239.283 163.861 C 239.292 165.431,239.176 166.915,239.026 167.158 C 238.876 167.401,238.971 167.600,239.238 167.600 C 239.561 167.600,239.508 167.839,239.083 168.309 C 238.403 169.059,238.093 171.258,238.035 175.724 C 238.016 177.222,237.839 178.348,237.643 178.226 C 237.098 177.890,236.873 179.407,236.818 183.800 C 236.772 187.403,235.690 191.202,235.568 188.186 C 235.550 187.738,235.448 187.621,235.331 187.913 C 235.217 188.196,235.343 188.691,235.611 189.013 C 235.939 189.408,235.955 189.600,235.660 189.600 C 235.366 189.600,235.247 191.025,235.296 193.957 C 235.341 196.640,235.200 198.523,234.929 198.857 C 234.521 199.360,234.075 202.806,233.926 206.600 C 233.892 207.480,233.689 208.429,233.476 208.708 C 233.263 208.988,233.000 211.328,232.892 213.908 C 232.784 216.489,232.534 218.704,232.337 218.830 C 232.140 218.957,231.939 219.616,231.889 220.296 C 231.767 221.983,231.458 221.536,231.354 219.523 C 231.306 218.586,231.496 217.646,231.795 217.348 C 232.151 216.992,232.340 215.500,232.383 212.711 C 232.439 209.005,232.620 205.833,232.849 204.518 C 232.895 204.252,233.061 204.114,233.216 204.210 C 233.681 204.497,233.919 200.684,233.975 192.024 C 234.004 187.528,234.177 183.658,234.360 183.424 C 234.945 182.677,235.188 178.071,235.225 167.000 C 235.249 159.624,235.423 155.567,235.774 154.203 C 236.127 152.827,236.314 148.290,236.375 139.603 C 236.506 120.721,236.846 110.097,237.343 109.292 C 237.461 109.101,237.557 107.698,237.556 106.173 C 237.556 104.648,237.545 96.740,237.533 88.600 C 237.521 80.460,237.534 73.022,237.561 72.071 C 237.589 71.121,237.474 70.131,237.306 69.871 C 237.138 69.612,236.960 68.860,236.911 68.200 C 236.665 64.905,236.440 58.501,236.421 54.282 C 236.401 49.820,236.347 49.510,235.418 48.582 C 234.178 47.342,233.680 47.343,233.368 48.587 M177.996 146.033 C 177.993 146.565,177.881 147.664,177.747 148.475 C 177.523 149.830,177.572 149.932,178.348 149.730 C 178.964 149.568,179.141 149.278,179.000 148.654 C 178.895 148.184,178.724 147.283,178.622 146.651 C 178.380 145.164,178.001 144.790,177.996 146.033 M230.283 232.895 C 230.187 233.393,230.105 233.080,230.101 232.200 C 230.096 231.320,230.175 230.913,230.275 231.295 C 230.375 231.678,230.379 232.398,230.283 232.895 M228.676 246.700 C 228.575 247.085,228.493 246.770,228.493 246.000 C 228.493 245.230,228.575 244.915,228.676 245.300 C 228.776 245.685,228.776 246.315,228.676 246.700 M228.682 250.100 C 228.587 250.595,228.509 250.190,228.509 249.200 C 228.509 248.210,228.587 247.805,228.682 248.300 C 228.778 248.795,228.778 249.605,228.682 250.100 M188.403 256.600 C 188.609 257.040,188.853 260.280,188.946 263.800 C 189.110 269.996,189.165 270.649,189.704 272.800 C 189.842 273.350,190.065 276.500,190.201 279.800 C 190.339 283.145,190.662 286.242,190.932 286.800 C 191.256 287.469,191.400 289.916,191.367 294.200 C 191.340 297.720,191.395 300.285,191.489 299.900 C 191.582 299.515,191.836 299.200,192.053 299.200 C 192.270 299.200,192.336 299.380,192.200 299.600 C 192.064 299.820,192.123 300.000,192.330 300.000 C 192.539 300.000,192.736 301.934,192.772 304.339 C 192.857 310.072,193.112 312.898,193.570 313.181 C 193.776 313.309,194.049 315.894,194.177 318.927 C 194.326 322.467,194.602 324.757,194.947 325.321 C 195.333 325.951,195.457 327.501,195.387 330.800 C 195.333 333.330,195.399 335.580,195.533 335.800 C 195.819 336.268,195.860 336.418,196.364 338.817 C 196.573 339.816,196.785 342.149,196.834 344.001 C 196.883 345.853,197.068 348.015,197.246 348.806 C 197.424 349.597,197.755 352.124,197.983 354.422 C 198.432 358.948,198.553 360.053,199.419 367.600 C 199.991 372.585,200.247 391.692,199.758 392.965 C 199.217 394.374,198.799 392.955,198.790 389.676 C 198.785 387.764,198.616 385.480,198.414 384.600 C 198.212 383.720,197.849 380.300,197.606 377.000 C 197.363 373.700,196.902 369.546,196.582 367.769 C 196.262 365.992,196.000 363.650,196.000 362.566 C 196.000 361.482,195.812 359.966,195.582 359.197 C 195.352 358.429,194.991 355.550,194.780 352.800 C 194.568 350.050,194.219 346.900,194.003 345.800 C 193.788 344.700,193.430 341.370,193.209 338.400 C 192.987 335.430,192.638 331.650,192.434 330.000 C 192.230 328.350,192.016 325.110,191.959 322.800 C 191.902 320.490,191.616 317.700,191.324 316.600 C 190.972 315.275,190.812 312.403,190.851 308.087 C 190.882 304.506,190.765 301.446,190.590 301.287 C 190.415 301.129,190.418 301.253,190.598 301.562 C 190.817 301.940,190.772 302.030,190.462 301.838 C 189.824 301.444,189.858 298.402,190.500 298.394 C 190.880 298.389,190.885 298.315,190.523 298.085 C 190.190 297.873,189.985 295.217,189.841 289.242 C 189.683 282.716,189.502 280.548,189.073 280.051 C 188.646 279.556,188.492 277.779,188.432 272.631 C 188.375 267.721,188.191 265.474,187.763 264.450 C 187.329 263.411,187.199 261.725,187.271 258.055 C 187.341 254.437,187.458 253.446,187.698 254.436 C 187.880 255.186,188.197 256.160,188.403 256.600 M172.691 277.500 C 172.605 278.325,172.534 277.650,172.534 276.000 C 172.534 274.350,172.605 273.675,172.691 274.500 C 172.778 275.325,172.778 276.675,172.691 277.500 M176.692 306.691 C 176.605 307.521,176.533 306.940,176.531 305.400 C 176.529 303.860,176.600 303.181,176.689 303.891 C 176.777 304.601,176.779 305.861,176.692 306.691 M178.276 319.500 C 178.175 319.885,178.093 319.570,178.093 318.800 C 178.093 318.030,178.175 317.715,178.276 318.100 C 178.376 318.485,178.376 319.115,178.276 319.500 M180.148 328.500 C 180.470 329.215,180.813 331.213,180.909 332.941 C 181.006 334.668,181.265 336.198,181.486 336.341 C 181.706 336.483,181.995 337.974,182.128 339.654 C 182.420 343.343,182.493 343.723,182.980 344.073 C 183.189 344.223,183.331 345.715,183.295 347.388 C 183.259 349.061,183.365 350.345,183.532 350.242 C 183.698 350.140,183.862 350.432,183.897 350.892 C 183.932 351.352,184.141 351.840,184.362 351.977 C 184.584 352.114,184.795 353.989,184.831 356.144 C 184.881 359.093,185.036 360.116,185.459 360.278 C 185.918 360.454,185.927 360.608,185.510 361.123 C 185.116 361.611,185.113 361.685,185.500 361.453 C 185.883 361.223,186.005 361.928,186.021 364.476 C 186.052 369.288,186.447 375.368,186.744 375.600 C 187.263 376.005,187.403 377.397,187.227 380.400 C 187.088 382.787,186.097 378.836,185.868 374.978 C 185.610 370.650,185.454 369.630,184.876 368.526 C 184.667 368.127,184.467 366.293,184.431 364.450 C 184.356 360.534,184.322 360.288,183.820 359.927 C 183.279 359.538,182.907 352.460,183.400 351.930 C 183.669 351.640,183.637 351.440,183.300 351.317 C 183.025 351.216,182.800 350.878,182.800 350.567 C 182.800 350.255,182.620 350.000,182.400 350.000 C 182.164 350.000,182.000 348.592,182.000 346.577 C 182.000 343.298,181.389 339.600,180.848 339.600 C 180.707 339.600,180.569 339.015,180.543 338.300 C 180.315 332.179,180.204 330.874,179.923 331.048 C 179.562 331.271,179.521 331.078,179.450 328.800 C 179.390 326.868,179.409 326.859,180.148 328.500 " stroke="none" fill="#2c7463" fill-rule="evenodd"></path><path id="path2" d="M151.600 39.351 C 151.600 39.434,151.870 39.726,152.200 40.000 C 152.691 40.408,152.800 40.380,152.800 39.849 C 152.800 39.492,152.530 39.200,152.200 39.200 C 151.870 39.200,151.600 39.268,151.600 39.351 M171.507 46.500 C 171.408 46.775,171.307 49.418,171.283 52.374 C 171.246 56.774,171.125 57.810,170.619 58.094 C 170.114 58.376,170.000 59.329,170.000 63.287 C 170.000 68.687,170.237 69.359,170.532 64.798 C 170.639 63.149,170.764 61.710,170.810 61.600 C 170.857 61.490,170.858 61.220,170.814 61.000 C 170.770 60.780,170.874 60.740,171.045 60.912 C 171.684 61.551,171.936 64.487,172.202 74.400 C 172.317 78.690,172.592 88.860,172.812 97.000 C 173.031 105.140,173.394 113.600,173.618 115.800 C 173.841 118.000,174.200 122.410,174.416 125.600 C 174.631 128.790,174.991 132.412,175.214 133.650 C 175.438 134.887,175.712 137.947,175.824 140.450 C 176.270 150.430,176.334 150.811,177.665 151.370 C 178.319 151.645,178.857 152.035,178.861 152.235 C 178.864 152.436,178.942 152.675,179.033 152.767 C 179.125 152.858,179.200 152.363,179.200 151.667 C 179.200 150.923,178.993 150.397,178.700 150.394 C 178.360 150.390,178.393 150.250,178.800 149.959 C 179.277 149.619,179.205 149.574,178.452 149.740 C 177.557 149.939,177.517 149.867,177.747 148.475 C 177.881 147.664,177.993 146.565,177.996 146.033 C 178.002 144.623,178.448 145.299,178.682 147.074 C 178.998 149.468,179.200 149.169,179.200 146.309 C 179.200 144.346,179.049 143.628,178.600 143.455 C 178.077 143.254,178.000 140.374,178.000 120.889 C 178.000 101.869,177.913 98.438,177.413 97.776 C 176.921 97.126,176.822 94.525,176.807 81.800 C 176.789 66.185,176.703 64.800,175.753 64.800 C 175.300 64.800,175.200 63.288,175.200 56.420 C 175.200 49.889,175.083 47.969,174.670 47.720 C 174.378 47.544,174.024 47.085,173.882 46.700 C 173.586 45.893,171.778 45.741,171.507 46.500 M233.067 46.267 C 232.920 46.413,232.827 47.448,232.860 48.567 C 232.894 49.739,232.991 50.131,233.087 49.493 C 233.179 48.884,233.410 48.482,233.600 48.600 C 233.789 48.717,234.075 48.602,234.234 48.345 C 234.415 48.052,234.350 47.984,234.062 48.162 C 233.808 48.319,233.600 48.257,233.600 48.024 C 233.600 47.388,234.201 47.511,235.256 48.363 C 236.134 49.074,236.216 49.483,236.424 54.263 L 236.647 59.400 236.724 53.799 L 236.800 48.197 235.636 47.099 C 234.497 46.024,233.600 45.733,233.067 46.267 M183.568 47.387 C 183.202 47.536,183.509 49.456,183.876 49.315 C 184.150 49.210,184.335 48.916,184.287 48.662 C 184.239 48.408,184.470 48.200,184.800 48.200 C 185.169 48.200,185.500 48.738,185.661 49.600 C 185.905 50.903,185.918 50.878,185.861 49.233 C 185.805 47.620,184.862 46.861,183.568 47.387 M186.180 57.090 C 186.344 58.801,186.544 61.709,186.625 63.553 C 186.874 69.197,187.200 67.698,187.200 60.909 C 187.200 55.315,187.115 54.453,186.542 54.233 C 185.950 54.006,185.913 54.297,186.180 57.090 M231.680 59.680 C 230.975 60.385,231.093 60.800,232.000 60.800 C 232.533 60.800,232.800 60.533,232.800 60.000 C 232.800 59.093,232.385 58.975,231.680 59.680 M236.509 61.600 C 236.509 62.590,236.587 62.995,236.682 62.500 C 236.778 62.005,236.778 61.195,236.682 60.700 C 236.587 60.205,236.509 60.610,236.509 61.600 M182.267 61.067 C 182.120 61.213,182.021 65.128,182.046 69.767 C 182.098 79.098,182.308 79.902,182.527 71.600 C 182.605 68.630,182.765 65.840,182.883 65.400 C 183.808 61.946,183.506 59.827,182.267 61.067 M236.680 64.135 C 236.561 64.447,236.591 65.310,236.747 66.051 C 236.904 66.793,237.000 67.850,236.960 68.400 C 236.920 68.950,237.071 69.626,237.295 69.902 C 237.518 70.178,237.604 71.078,237.485 71.902 C 237.366 72.726,237.423 73.760,237.613 74.200 C 237.822 74.687,237.926 72.820,237.878 69.433 C 237.805 64.248,237.372 62.332,236.680 64.135 M230.067 75.900 C 230.105 77.662,230.203 78.310,230.294 77.400 C 230.382 76.520,230.621 75.629,230.827 75.420 C 231.447 74.788,231.275 72.800,230.600 72.800 C 230.112 72.800,230.013 73.381,230.067 75.900 M204.800 74.862 C 204.800 75.686,204.834 75.694,205.567 75.030 C 207.445 73.330,208.190 74.247,208.307 78.400 C 208.365 80.490,208.529 82.470,208.670 82.800 C 208.811 83.130,208.894 83.548,208.854 83.730 C 208.813 83.911,208.995 83.927,209.258 83.764 C 209.582 83.564,209.655 83.679,209.485 84.122 C 209.348 84.481,209.407 84.881,209.617 85.011 C 209.837 85.146,210.000 84.555,210.000 83.624 C 210.000 82.447,209.835 82.000,209.400 82.000 C 208.907 82.000,208.800 81.289,208.800 78.000 L 208.800 74.000 206.800 74.000 C 205.019 74.000,204.800 74.094,204.800 74.862 M237.714 77.000 C 237.717 78.100,237.795 78.503,237.887 77.895 C 237.979 77.286,237.977 76.386,237.882 75.895 C 237.787 75.403,237.711 75.900,237.714 77.000 M224.493 78.000 C 224.493 78.770,224.575 79.085,224.676 78.700 C 224.776 78.315,224.776 77.685,224.676 77.300 C 224.575 76.915,224.493 77.230,224.493 78.000 M237.770 88.200 C 237.771 93.040,237.829 94.965,237.899 92.478 C 237.969 89.991,237.969 86.031,237.898 83.678 C 237.828 81.325,237.770 83.360,237.770 88.200 M203.945 80.866 C 203.580 81.522,203.390 84.181,203.306 89.800 C 203.240 94.200,203.071 98.070,202.929 98.400 C 202.788 98.730,202.702 99.135,202.736 99.300 C 202.771 99.465,202.620 99.600,202.400 99.600 C 202.139 99.600,202.000 106.519,202.000 119.557 C 202.000 136.928,201.922 139.544,201.400 139.745 C 200.532 140.078,200.520 150.677,201.387 151.824 C 201.894 152.494,201.983 158.450,202.034 195.400 C 202.066 218.940,202.162 237.930,202.246 237.600 C 202.330 237.270,202.444 229.725,202.500 220.833 C 202.577 208.327,202.713 204.629,203.100 204.500 C 203.495 204.368,203.604 208.144,203.618 222.467 C 203.637 241.818,204.046 246.657,205.124 240.298 C 205.376 238.812,205.811 236.292,206.091 234.698 C 206.795 230.693,206.804 144.091,206.102 123.800 C 205.829 115.880,205.507 103.910,205.388 97.200 C 205.191 86.094,204.928 80.424,204.591 80.066 C 204.522 79.992,204.231 80.352,203.945 80.866 M182.109 84.400 C 182.109 85.390,182.187 85.795,182.282 85.300 C 182.378 84.805,182.378 83.995,182.282 83.500 C 182.187 83.005,182.109 83.410,182.109 84.400 M229.067 87.467 C 228.920 87.613,228.827 88.558,228.860 89.567 C 228.904 90.914,228.965 91.082,229.091 90.200 C 229.185 89.540,229.428 88.829,229.631 88.620 C 229.834 88.411,230.000 88.006,230.000 87.720 C 230.000 87.164,229.504 87.029,229.067 87.467 M187.200 91.000 C 187.200 91.550,187.350 92.000,187.533 92.000 C 187.991 92.000,187.985 91.926,188.226 101.600 C 188.517 113.316,188.699 113.316,188.748 101.600 C 188.771 96.210,188.681 91.395,188.548 90.900 C 188.218 89.668,187.200 89.744,187.200 91.000 M210.000 93.990 C 210.000 94.682,210.167 95.144,210.371 95.018 C 210.576 94.891,210.827 95.196,210.931 95.694 C 211.034 96.192,211.092 95.804,211.060 94.831 C 210.990 92.771,210.000 91.985,210.000 93.990 M237.659 100.800 C 237.590 102.450,237.541 104.953,237.552 106.362 C 237.562 107.771,237.471 109.085,237.350 109.281 C 237.228 109.478,237.067 110.665,236.991 111.920 C 236.915 113.174,236.764 115.325,236.655 116.700 C 236.547 118.075,236.618 119.200,236.815 119.200 C 237.822 119.200,238.009 117.218,237.900 107.713 C 237.837 102.261,237.729 99.150,237.659 100.800 M227.455 102.600 C 227.118 103.478,227.578 104.383,228.233 104.132 C 228.971 103.849,228.979 102.000,228.243 102.000 C 227.936 102.000,227.582 102.270,227.455 102.600 M211.213 105.271 C 211.220 105.562,211.466 106.117,211.760 106.505 C 212.102 106.954,212.322 108.542,212.370 110.893 C 212.411 112.920,212.530 114.663,212.635 114.768 C 212.740 114.873,212.775 112.721,212.713 109.984 C 212.614 105.617,212.515 104.993,211.900 104.876 C 211.514 104.802,211.206 104.979,211.213 105.271 M188.467 114.076 C 188.430 115.328,188.583 116.466,188.807 116.604 C 189.030 116.742,189.117 117.010,189.000 117.200 C 188.883 117.390,188.944 117.642,189.137 117.761 C 189.329 117.880,189.502 119.082,189.521 120.433 C 189.540 121.784,189.656 122.989,189.778 123.111 C 189.900 123.233,190.000 121.615,190.000 119.516 C 190.000 116.676,189.852 115.575,189.422 115.219 C 189.105 114.955,188.775 114.078,188.690 113.270 C 188.577 112.203,188.516 112.424,188.467 114.076 M212.589 116.200 C 212.723 116.860,212.855 117.625,212.883 117.900 C 212.911 118.175,213.072 118.400,213.241 118.400 C 213.411 118.400,213.622 118.985,213.711 119.700 C 213.824 120.614,213.891 120.389,213.936 118.944 C 213.985 117.375,213.804 116.665,213.173 115.944 L 212.346 115.000 212.589 116.200 M182.109 118.400 C 182.109 119.390,182.187 119.795,182.282 119.300 C 182.378 118.805,182.378 117.995,182.282 117.500 C 182.187 117.005,182.109 117.410,182.109 118.400 M226.414 117.574 C 226.186 117.999,226.000 119.919,226.000 121.840 C 226.000 125.689,226.331 126.300,226.449 122.671 C 226.490 121.412,226.766 119.916,227.062 119.346 C 227.689 118.137,227.769 116.800,227.214 116.800 C 227.002 116.800,226.642 117.148,226.414 117.574 M236.534 122.400 C 236.534 124.050,236.605 124.725,236.691 123.900 C 236.778 123.075,236.778 121.725,236.691 120.900 C 236.605 120.075,236.534 120.750,236.534 122.400 M182.000 140.453 C 182.000 156.722,182.090 158.000,183.233 158.000 C 183.587 158.000,183.444 151.711,183.082 151.349 C 182.931 151.197,183.030 150.797,183.303 150.460 C 183.707 149.961,183.699 149.907,183.257 150.173 C 182.828 150.432,182.770 150.246,182.981 149.288 C 183.127 148.622,183.097 147.983,182.913 147.870 C 182.729 147.756,182.528 142.388,182.466 135.941 C 182.403 129.494,182.273 124.139,182.176 124.043 C 182.079 123.946,182.000 131.331,182.000 140.453 M215.232 126.900 C 215.214 127.285,214.930 127.600,214.600 127.600 C 213.931 127.600,213.774 129.013,214.400 129.400 C 214.620 129.536,214.821 130.042,214.847 130.524 C 214.872 131.006,215.056 130.420,215.255 129.223 C 215.453 128.026,215.536 126.856,215.439 126.623 C 215.342 126.390,215.249 126.515,215.232 126.900 M236.466 137.200 C 236.317 150.441,236.185 153.488,235.707 154.800 C 235.093 156.487,235.054 159.315,235.648 159.117 C 236.659 158.780,236.808 156.256,236.700 141.325 C 236.595 126.858,236.585 126.678,236.466 137.200 M224.870 136.500 C 224.925 138.474,224.972 138.642,225.093 137.300 C 225.177 136.365,225.416 135.600,225.623 135.600 C 225.830 135.600,226.000 135.240,226.000 134.800 C 226.000 134.356,225.733 134.000,225.400 134.000 C 224.923 134.000,224.814 134.513,224.870 136.500 M243.709 135.747 C 242.920 137.024,243.390 138.014,244.256 136.900 C 244.770 136.238,244.834 136.244,245.429 137.000 C 246.035 137.772,246.053 137.758,245.929 136.600 C 245.795 135.351,244.307 134.780,243.709 135.747 M253.084 135.450 C 252.928 135.606,252.800 136.188,252.800 136.743 C 252.800 137.719,252.820 137.727,253.400 136.976 C 253.993 136.209,254.007 136.209,254.629 137.000 C 255.235 137.772,255.253 137.758,255.129 136.600 C 255.003 135.426,253.789 134.744,253.084 135.450 M190.026 136.300 C 190.040 136.685,190.295 138.080,190.592 139.400 L 191.133 141.800 191.166 138.700 C 191.194 136.196,191.085 135.600,190.600 135.600 C 190.270 135.600,190.012 135.915,190.026 136.300 M151.567 138.100 C 151.326 138.823,151.419 140.088,151.727 140.279 C 151.945 140.413,152.008 140.336,151.866 140.107 C 151.522 139.550,152.730 138.564,153.178 139.037 C 153.367 139.237,153.609 139.760,153.715 140.200 C 153.823 140.652,153.927 140.347,153.954 139.500 C 153.993 138.227,151.928 137.016,151.567 138.100 M163.569 138.100 C 163.316 138.928,163.346 139.600,163.635 139.600 C 163.836 139.600,164.000 139.345,164.000 139.033 C 164.000 138.722,164.225 138.376,164.500 138.265 C 164.799 138.144,164.718 138.050,164.300 138.032 C 163.915 138.014,163.586 138.045,163.569 138.100 M242.267 141.067 C 242.120 141.213,242.032 142.518,242.072 143.967 C 242.132 146.161,242.169 146.289,242.293 144.732 C 242.374 143.704,242.702 142.647,243.021 142.383 C 243.339 142.118,243.600 141.654,243.600 141.351 C 243.600 140.781,242.736 140.597,242.267 141.067 M214.761 144.700 C 214.739 146.185,214.715 148.345,214.709 149.500 C 214.702 150.655,214.584 151.600,214.448 151.601 C 214.312 151.601,214.151 153.626,214.090 156.101 C 213.991 160.193,214.036 160.530,214.590 159.824 C 215.180 159.073,215.572 142.000,215.000 142.000 C 214.890 142.000,214.782 143.215,214.761 144.700 M251.568 142.300 C 251.309 144.684,251.344 144.797,252.088 143.998 C 252.956 143.066,253.016 142.000,252.200 142.000 C 251.870 142.000,251.585 142.135,251.568 142.300 M154.014 143.867 C 154.022 144.270,154.293 145.050,154.617 145.600 C 155.200 146.591,155.204 146.585,155.103 145.031 C 155.002 143.497,153.986 142.410,154.014 143.867 M151.340 151.600 C 151.340 153.470,151.409 154.235,151.493 153.300 C 151.577 152.365,151.577 150.835,151.493 149.900 C 151.409 148.965,151.340 149.730,151.340 151.600 M241.067 149.067 C 240.920 149.213,240.800 149.968,240.800 150.743 C 240.800 152.069,240.835 152.106,241.387 151.376 C 242.350 150.103,242.067 148.066,241.067 149.067 M250.697 150.050 C 250.150 150.356,250.012 150.931,250.054 152.720 C 250.084 153.974,250.181 154.550,250.269 154.000 C 250.358 153.450,250.721 152.323,251.078 151.496 C 251.803 149.810,251.716 149.479,250.697 150.050 M223.554 150.300 C 223.205 152.548,223.375 154.805,223.827 153.942 C 224.747 152.187,224.978 150.000,224.245 150.000 C 223.890 150.000,223.579 150.135,223.554 150.300 M155.213 153.300 C 155.220 153.575,155.465 154.116,155.758 154.502 C 156.077 154.922,156.320 156.442,156.363 158.286 C 156.402 159.981,156.516 161.450,156.617 161.550 C 156.893 161.827,156.837 154.161,156.557 153.433 C 156.270 152.684,155.194 152.578,155.213 153.300 M191.200 155.520 C 191.200 155.916,191.425 156.482,191.700 156.779 C 192.106 157.217,192.088 157.256,191.600 156.990 C 191.133 156.735,191.148 156.833,191.665 157.431 C 192.216 158.068,192.339 159.228,192.381 164.182 C 192.408 167.472,192.514 170.247,192.616 170.349 C 192.717 170.450,192.800 167.276,192.800 163.295 C 192.800 157.248,192.697 155.954,192.171 155.429 C 191.365 154.622,191.200 154.637,191.200 155.520 M239.422 158.364 C 239.045 158.975,239.630 159.963,240.233 159.732 C 240.976 159.447,240.968 158.000,240.224 158.000 C 239.907 158.000,239.546 158.164,239.422 158.364 M248.959 159.761 C 248.571 160.775,248.967 161.265,249.493 160.422 C 249.805 159.924,249.840 159.548,249.589 159.393 C 249.372 159.259,249.089 159.425,248.959 159.761 M245.533 161.397 C 245.386 161.546,245.347 162.117,245.446 162.666 C 245.579 163.397,245.490 163.585,245.114 163.368 C 244.831 163.205,244.724 163.209,244.874 163.377 C 245.025 163.545,244.987 164.107,244.790 164.627 C 244.558 165.236,244.580 165.664,244.850 165.831 C 245.636 166.317,246.046 165.318,245.923 163.220 C 245.855 162.069,245.680 161.248,245.533 161.397 M179.268 163.600 C 179.314 164.753,179.509 165.209,179.966 165.232 C 180.383 165.252,180.428 165.333,180.098 165.466 C 179.821 165.577,179.731 165.878,179.898 166.134 C 180.064 166.390,180.299 169.210,180.421 172.400 L 180.642 178.200 180.721 171.126 C 180.796 164.373,180.508 162.000,179.613 162.000 C 179.389 162.000,179.234 162.720,179.268 163.600 M214.480 162.480 C 214.216 162.744,214.025 163.419,214.054 163.980 L 214.109 165.000 214.293 164.000 C 214.394 163.450,214.661 162.775,214.887 162.500 C 215.411 161.862,215.113 161.847,214.480 162.480 M157.059 163.474 C 156.920 163.613,156.969 163.923,157.168 164.163 C 157.367 164.403,157.608 165.140,157.705 165.800 C 157.848 166.778,157.891 166.690,157.940 165.324 C 157.997 163.733,157.611 162.922,157.059 163.474 M254.815 164.600 C 254.738 165.040,254.708 165.791,254.748 166.270 C 254.788 166.748,254.636 167.254,254.410 167.394 C 253.874 167.725,253.876 170.000,254.413 170.000 C 255.078 170.000,255.250 169.081,255.098 166.358 C 255.019 164.951,254.891 164.160,254.815 164.600 M244.493 167.600 C 244.493 168.370,244.575 168.685,244.676 168.300 C 244.776 167.915,244.776 167.285,244.676 166.900 C 244.575 166.515,244.493 166.830,244.493 167.600 M238.239 167.494 C 238.108 167.626,238.027 168.558,238.060 169.567 C 238.104 170.925,238.165 171.089,238.293 170.200 C 238.389 169.540,238.730 168.707,239.051 168.349 C 239.642 167.691,238.863 166.870,238.239 167.494 M222.074 171.500 C 222.119 173.895,222.202 174.551,222.288 173.200 C 222.365 171.990,222.692 170.433,223.014 169.740 C 223.798 168.053,223.753 167.600,222.800 167.600 C 222.050 167.600,222.005 167.842,222.074 171.500 M247.572 168.100 C 247.557 168.375,247.480 169.092,247.400 169.694 C 247.321 170.295,247.423 170.891,247.628 171.017 C 247.833 171.144,248.000 170.887,248.000 170.447 C 248.000 170.007,248.180 169.536,248.400 169.400 C 249.026 169.013,248.869 167.600,248.200 167.600 C 247.870 167.600,247.588 167.825,247.572 168.100 M244.475 174.400 C 244.402 178.186,244.201 180.099,243.800 180.800 C 243.053 182.107,243.049 183.200,243.792 183.200 C 244.696 183.200,244.840 181.936,244.703 175.200 L 244.578 169.000 244.475 174.400 M192.693 172.800 C 192.795 173.790,193.016 174.870,193.185 175.200 C 193.353 175.530,193.519 176.780,193.555 177.977 C 193.664 181.608,194.000 180.783,194.000 176.887 C 194.000 174.175,193.856 173.158,193.438 172.920 C 193.130 172.744,192.794 172.240,192.692 171.800 C 192.590 171.360,192.590 171.810,192.693 172.800 M158.000 173.351 C 158.000 173.654,158.270 174.126,158.600 174.400 C 159.107 174.821,159.200 174.736,159.200 173.849 C 159.200 173.183,158.981 172.800,158.600 172.800 C 158.270 172.800,158.000 173.048,158.000 173.351 M246.700 176.845 C 246.159 177.150,246.003 177.756,246.013 179.520 L 246.027 181.800 246.833 179.457 C 247.740 176.819,247.712 176.273,246.700 176.845 M236.846 178.100 C 236.872 178.815,236.976 179.083,237.077 178.695 C 237.178 178.307,237.427 178.093,237.630 178.219 C 237.834 178.344,238.000 178.077,238.000 177.624 C 238.000 177.158,237.739 176.800,237.400 176.800 C 236.980 176.800,236.814 177.190,236.846 178.100 M183.314 179.000 C 183.317 180.100,183.395 180.503,183.487 179.895 C 183.579 179.286,183.577 178.386,183.482 177.895 C 183.387 177.403,183.311 177.900,183.314 179.000 M163.385 180.931 C 163.434 183.158,163.619 184.165,164.027 184.420 C 164.737 184.863,165.096 182.239,164.434 181.441 C 164.204 181.164,163.859 180.231,163.666 179.369 C 163.374 178.058,163.328 178.315,163.385 180.931 M180.503 180.000 C 180.515 180.990,180.756 182.183,181.040 182.651 C 181.323 183.120,181.622 184.470,181.703 185.651 C 181.811 187.212,181.872 186.854,181.926 184.343 C 181.983 181.666,181.871 180.836,181.429 180.666 C 181.115 180.546,180.773 179.942,180.670 179.324 C 180.554 178.629,180.490 178.888,180.503 180.000 M151.416 182.471 C 151.493 184.082,151.566 185.535,151.578 185.700 C 151.651 186.691,152.800 185.845,152.800 184.800 C 152.800 184.140,152.631 183.600,152.425 183.600 C 152.219 183.600,152.037 183.285,152.022 182.900 C 151.964 181.422,151.730 179.996,151.508 179.774 C 151.380 179.647,151.339 180.861,151.416 182.471 M234.878 181.276 C 234.835 182.308,234.620 183.264,234.400 183.400 C 233.871 183.727,233.882 186.000,234.413 186.000 C 235.084 186.000,235.248 185.083,235.098 182.160 C 234.996 180.167,234.935 179.922,234.878 181.276 M253.679 181.033 C 253.636 181.932,253.475 182.792,253.322 182.945 C 253.169 183.098,253.008 183.443,252.965 183.712 C 252.518 186.502,252.440 187.307,252.664 186.800 C 252.810 186.470,253.179 186.016,253.484 185.791 C 253.895 185.489,254.002 184.606,253.899 182.391 C 253.822 180.746,253.723 180.135,253.679 181.033 M159.200 183.024 C 159.200 183.587,159.368 183.943,159.574 183.816 C 159.959 183.578,160.308 185.472,160.530 189.000 C 160.599 190.100,160.688 189.260,160.728 187.133 C 160.768 185.006,160.691 182.981,160.557 182.633 C 160.164 181.608,159.200 181.886,159.200 183.024 M183.293 184.000 C 183.293 184.770,183.375 185.085,183.476 184.700 C 183.576 184.315,183.576 183.685,183.476 183.300 C 183.375 182.915,183.293 183.230,183.293 184.000 M221.064 185.100 C 220.637 185.801,220.307 190.904,220.705 190.659 C 220.931 190.519,221.214 189.729,221.335 188.903 C 221.456 188.076,221.675 186.815,221.823 186.100 C 222.067 184.915,221.574 184.264,221.064 185.100 M235.574 186.500 C 235.560 186.775,235.491 187.585,235.421 188.300 C 235.351 189.015,235.463 189.600,235.670 189.600 C 235.878 189.600,235.949 189.440,235.828 189.245 C 235.707 189.050,235.877 188.668,236.204 188.396 C 236.990 187.744,236.987 186.000,236.200 186.000 C 235.870 186.000,235.589 186.225,235.574 186.500 M245.056 187.478 C 244.915 187.618,244.825 188.288,244.854 188.967 C 244.897 189.919,244.949 189.993,245.083 189.294 C 245.179 188.796,245.424 188.491,245.629 188.618 C 245.833 188.744,246.000 188.577,246.000 188.247 C 246.000 187.559,245.435 187.099,245.056 187.478 M252.437 191.300 C 252.232 197.143,252.211 197.329,251.672 198.300 C 251.248 199.063,251.267 199.200,251.798 199.200 C 252.750 199.200,252.834 198.598,252.700 192.780 C 252.580 187.646,252.568 187.578,252.437 191.300 M194.065 191.336 C 194.117 192.113,194.294 192.666,194.458 192.564 C 194.621 192.463,194.827 193.240,194.915 194.290 C 195.004 195.344,195.058 194.870,195.038 193.232 C 195.012 191.194,194.839 190.211,194.485 190.094 C 194.119 189.973,193.997 190.332,194.065 191.336 M161.011 193.500 C 161.174 193.885,161.443 194.830,161.608 195.600 C 161.887 196.904,161.911 196.856,161.954 194.900 C 161.991 193.219,161.872 192.800,161.357 192.800 C 160.899 192.800,160.799 193.001,161.011 193.500 M242.870 194.476 C 242.831 195.068,242.620 195.664,242.400 195.800 C 241.872 196.126,241.883 198.000,242.413 198.000 C 243.043 198.000,243.266 197.068,243.095 195.146 C 243.010 194.186,242.908 193.884,242.870 194.476 M233.957 198.300 C 233.934 199.125,233.875 200.070,233.826 200.400 C 233.777 200.730,233.706 201.776,233.668 202.724 C 233.631 203.672,233.450 204.355,233.267 204.241 C 233.083 204.128,232.895 204.252,232.849 204.518 C 232.620 205.833,232.439 209.005,232.383 212.711 C 232.340 215.500,232.151 216.992,231.795 217.348 C 231.496 217.646,231.306 218.586,231.354 219.523 C 231.458 221.536,231.767 221.983,231.889 220.296 C 231.939 219.616,232.140 218.957,232.337 218.830 C 232.534 218.704,232.784 216.489,232.892 213.908 C 233.011 211.071,233.282 208.983,233.578 208.626 C 234.106 207.990,233.787 207.037,233.172 207.417 C 232.968 207.544,232.800 207.277,232.800 206.824 C 232.800 206.371,233.047 206.000,233.348 206.000 C 233.745 206.000,233.976 205.089,234.184 202.700 C 234.342 200.885,234.669 199.160,234.912 198.867 C 235.650 197.975,235.548 196.800,234.733 196.800 C 234.160 196.800,233.991 197.128,233.957 198.300 M243.779 197.500 C 243.323 198.538,243.243 200.379,243.642 200.626 C 243.834 200.745,243.893 200.585,243.772 200.272 C 243.652 199.959,243.834 199.423,244.177 199.080 C 244.845 198.412,245.033 196.800,244.443 196.800 C 244.246 196.800,243.947 197.115,243.779 197.500 M182.087 199.186 C 182.106 199.839,182.274 200.278,182.460 200.163 C 182.647 200.047,182.821 200.548,182.847 201.276 L 182.895 202.600 183.163 201.400 C 183.412 200.285,183.448 200.264,183.678 201.100 C 183.987 202.225,184.800 202.283,184.800 201.180 C 184.800 199.845,183.649 198.000,182.816 198.000 C 182.230 198.000,182.061 198.274,182.087 199.186 M164.850 201.857 C 164.811 203.784,164.940 204.368,165.448 204.563 C 165.983 204.768,166.048 204.620,165.822 203.706 C 165.672 203.098,165.403 201.880,165.224 201.000 C 164.913 199.466,164.898 199.501,164.850 201.857 M162.000 202.824 C 162.000 203.277,162.167 203.544,162.371 203.418 C 162.576 203.291,162.821 203.596,162.917 204.094 C 163.026 204.662,163.111 204.440,163.146 203.500 C 163.185 202.409,163.036 202.000,162.600 202.000 C 162.261 202.000,162.000 202.358,162.000 202.824 M152.846 204.700 C 152.808 206.750,152.916 207.200,153.443 207.200 C 153.951 207.200,154.024 206.968,153.787 206.100 C 153.622 205.495,153.353 204.370,153.190 203.600 C 152.935 202.400,152.885 202.557,152.846 204.700 M219.568 204.300 C 219.550 204.685,219.488 205.947,219.429 207.105 C 219.310 209.481,219.542 209.562,220.033 207.316 C 220.215 206.482,220.483 205.305,220.629 204.700 C 220.834 203.845,220.750 203.600,220.247 203.600 C 219.891 203.600,219.586 203.915,219.568 204.300 M241.664 206.454 C 241.629 207.034,241.331 208.024,241.002 208.654 C 240.095 210.394,240.164 212.293,241.100 211.357 C 241.767 210.690,241.812 210.712,242.053 211.828 C 242.266 212.819,242.313 212.720,242.353 211.189 C 242.379 210.193,242.672 208.990,243.004 208.515 C 243.434 207.902,243.479 207.572,243.160 207.375 C 242.913 207.222,242.565 207.334,242.386 207.622 C 242.171 207.971,242.005 207.685,241.895 206.774 C 241.765 205.706,241.714 205.635,241.664 206.454 M195.365 207.673 C 195.514 208.601,195.802 209.561,196.005 209.806 C 196.209 210.051,196.431 212.580,196.501 215.426 L 196.626 220.600 196.708 214.400 C 196.795 207.724,196.656 206.584,195.708 206.220 C 195.193 206.023,195.138 206.255,195.365 207.673 M250.854 210.700 C 250.825 211.195,250.620 211.600,250.400 211.600 C 250.180 211.600,250.000 211.870,250.000 212.200 C 250.000 212.963,250.755 212.984,251.044 212.229 C 251.165 211.915,251.184 211.240,251.086 210.729 L 250.909 209.800 250.854 210.700 M163.200 212.200 C 163.200 212.787,163.407 213.159,163.700 213.100 C 164.067 213.027,164.253 214.199,164.400 217.515 C 164.510 219.998,164.784 222.158,165.009 222.315 C 165.233 222.472,165.476 223.230,165.547 224.000 C 165.745 226.141,166.000 225.975,166.000 223.704 C 166.000 221.872,166.078 221.695,166.800 221.884 C 167.745 222.131,167.783 221.923,167.056 220.480 C 166.756 219.886,166.482 218.420,166.446 217.223 C 166.342 213.786,166.000 214.321,166.000 217.921 C 166.000 220.649,165.903 221.138,165.400 220.945 C 164.918 220.760,164.800 219.870,164.800 216.437 C 164.800 213.644,164.633 211.993,164.320 211.680 C 163.574 210.934,163.200 211.108,163.200 212.200 M240.479 216.420 C 240.436 218.741,240.216 220.824,239.991 221.049 C 239.317 221.723,239.181 223.200,239.792 223.200 C 240.340 223.200,241.442 220.612,241.270 219.730 C 241.220 219.472,241.364 219.146,241.589 219.007 C 242.196 218.632,242.088 218.000,241.418 218.000 C 240.974 218.000,240.802 217.309,240.697 215.100 C 240.583 212.696,240.545 212.921,240.479 216.420 M212.920 215.200 C 212.920 216.410,212.995 216.905,213.087 216.300 C 213.178 215.695,213.178 214.705,213.087 214.100 C 212.995 213.495,212.920 213.990,212.920 215.200 M183.413 215.579 C 183.266 215.816,183.411 216.540,183.734 217.188 C 184.148 218.018,184.338 219.872,184.375 223.464 C 184.404 226.267,184.511 228.645,184.614 228.747 C 184.716 228.850,184.800 227.289,184.800 225.279 C 184.800 222.195,184.894 221.661,185.400 221.855 C 185.863 222.033,186.000 221.765,186.000 220.676 C 186.000 219.901,185.809 219.203,185.576 219.125 C 185.343 219.048,185.135 218.406,185.115 217.699 C 185.076 216.319,183.878 214.827,183.413 215.579 M154.084 222.013 C 154.183 225.238,154.302 225.810,154.900 225.925 C 155.771 226.091,155.862 224.554,155.051 223.389 C 154.748 222.955,154.484 221.721,154.464 220.647 C 154.444 219.573,154.324 218.590,154.197 218.464 C 154.071 218.338,154.020 219.935,154.084 222.013 M196.512 222.200 C 196.533 223.080,196.765 224.160,197.026 224.600 C 197.288 225.040,197.524 226.195,197.551 227.166 C 197.634 230.200,198.000 229.491,198.000 226.295 C 198.000 224.233,197.821 223.078,197.443 222.700 C 197.137 222.394,196.793 221.796,196.680 221.372 C 196.566 220.947,196.491 221.320,196.512 222.200 M249.618 221.800 C 249.557 222.020,249.535 222.487,249.569 222.839 C 249.602 223.190,249.353 223.707,249.015 223.988 C 248.677 224.268,248.414 224.881,248.432 225.349 C 248.454 225.945,248.533 226.020,248.696 225.600 C 248.825 225.270,249.185 224.812,249.496 224.582 C 249.862 224.313,250.004 223.675,249.895 222.782 C 249.803 222.022,249.678 221.580,249.618 221.800 M218.554 225.777 C 218.432 226.094,218.403 226.679,218.489 227.077 C 218.587 227.528,218.724 227.312,218.854 226.500 C 219.071 225.138,218.930 224.796,218.554 225.777 M248.453 229.400 C 248.294 233.659,248.195 234.425,247.764 234.737 C 247.260 235.101,247.064 236.800,247.526 236.800 C 248.568 236.800,248.822 235.530,248.699 230.943 C 248.592 226.946,248.553 226.703,248.453 229.400 M218.101 229.800 C 218.105 230.680,218.187 230.993,218.283 230.495 C 218.379 229.998,218.375 229.278,218.275 228.895 C 218.175 228.513,218.096 228.920,218.101 229.800 M212.546 232.600 C 212.547 234.800,212.614 235.649,212.695 234.487 C 212.776 233.324,212.776 231.524,212.693 230.487 C 212.611 229.449,212.545 230.400,212.546 232.600 M239.149 229.477 C 238.776 229.937,238.760 230.057,239.100 229.853 C 239.375 229.688,239.597 229.698,239.594 229.876 C 239.584 230.410,238.569 233.164,238.274 233.459 C 237.706 234.027,238.010 235.200,238.725 235.200 C 239.338 235.200,239.429 234.921,239.315 233.400 C 239.236 232.349,239.350 231.600,239.590 231.600 C 239.815 231.600,239.979 231.465,239.953 231.300 C 239.810 230.396,240.052 229.585,240.400 229.800 C 240.620 229.936,240.800 229.767,240.800 229.424 C 240.800 228.597,239.837 228.628,239.149 229.477 M184.460 230.271 C 184.427 230.971,184.625 231.781,184.900 232.071 C 185.175 232.362,185.404 232.870,185.408 233.200 C 185.447 236.191,186.155 240.400,186.618 240.400 C 187.312 240.400,187.726 239.725,187.224 239.415 C 187.010 239.283,186.933 238.919,187.053 238.606 C 187.173 238.294,187.121 237.805,186.938 237.519 C 186.755 237.234,186.584 236.640,186.557 236.200 C 186.361 232.936,186.172 231.268,186.001 231.280 C 185.151 231.341,184.831 231.054,184.687 230.100 C 184.528 229.054,184.517 229.062,184.460 230.271 M230.101 232.200 C 230.105 233.080,230.187 233.393,230.283 232.895 C 230.379 232.398,230.375 231.678,230.275 231.295 C 230.175 230.913,230.096 231.320,230.101 232.200 M166.104 231.907 C 165.982 232.223,166.052 232.598,166.258 232.740 C 166.769 233.094,167.625 236.017,167.501 236.985 C 167.439 237.468,167.674 237.826,168.114 237.917 C 168.969 238.093,168.848 236.950,167.791 234.875 C 167.420 234.146,167.190 233.051,167.279 232.442 C 167.454 231.254,166.517 230.828,166.104 231.907 M155.413 239.029 C 155.478 240.113,155.546 241.225,155.565 241.500 C 155.584 241.775,155.870 242.000,156.200 242.000 C 156.884 242.000,157.019 240.583,156.373 240.183 C 156.138 240.038,156.028 239.703,156.130 239.439 C 156.231 239.176,156.085 238.532,155.805 238.009 C 155.341 237.142,155.306 237.233,155.413 239.029 M198.000 239.413 C 198.000 240.176,198.199 240.800,198.443 240.800 C 198.686 240.800,198.793 241.041,198.680 241.336 C 198.567 241.631,198.635 242.126,198.831 242.436 C 199.065 242.806,199.190 242.222,199.194 240.743 C 199.198 239.101,199.036 238.423,198.600 238.255 C 198.138 238.078,198.000 238.344,198.000 239.413 M238.248 239.100 C 238.005 239.929,237.510 242.652,237.523 243.092 C 237.528 243.261,237.324 243.650,237.070 243.956 C 236.330 244.848,236.336 246.922,237.076 246.181 C 237.396 245.861,237.824 245.600,238.029 245.600 C 238.233 245.600,238.379 245.465,238.353 245.300 C 238.151 244.021,238.494 241.158,238.900 240.729 C 239.662 239.923,239.761 238.400,239.052 238.400 C 238.723 238.400,238.361 238.715,238.248 239.100 M202.109 240.400 C 202.109 241.390,202.187 241.795,202.282 241.300 C 202.378 240.805,202.378 239.995,202.282 239.500 C 202.187 239.005,202.109 239.410,202.109 240.400 M167.200 241.413 C 167.200 241.749,167.448 242.120,167.751 242.237 C 168.163 242.395,168.320 243.480,168.372 246.524 C 168.410 248.766,168.601 250.760,168.796 250.955 C 169.142 251.302,168.954 243.542,168.572 241.700 C 168.363 240.696,167.200 240.452,167.200 241.413 M202.093 244.400 C 202.093 245.170,202.175 245.485,202.276 245.100 C 202.376 244.715,202.376 244.085,202.276 243.700 C 202.175 243.315,202.093 243.630,202.093 244.400 M246.496 245.195 C 245.823 246.272,245.871 247.200,246.600 247.200 C 247.019 247.200,247.200 246.778,247.200 245.800 C 247.200 244.171,247.158 244.135,246.496 245.195 M228.493 246.000 C 228.493 246.770,228.575 247.085,228.676 246.700 C 228.776 246.315,228.776 245.685,228.676 245.300 C 228.575 244.915,228.493 245.230,228.493 246.000 M187.200 246.043 C 187.200 246.286,186.930 246.382,186.600 246.255 C 185.902 245.988,185.715 248.177,186.400 248.600 C 186.620 248.736,186.800 249.497,186.800 250.290 C 186.800 251.084,186.872 251.658,186.961 251.567 C 187.174 251.345,187.554 245.600,187.355 245.600 C 187.270 245.600,187.200 245.799,187.200 246.043 M202.109 248.400 C 202.109 249.390,202.187 249.795,202.282 249.300 C 202.378 248.805,202.378 247.995,202.282 247.500 C 202.187 247.005,202.109 247.410,202.109 248.400 M212.109 248.800 C 212.109 249.790,212.187 250.195,212.282 249.700 C 212.378 249.205,212.378 248.395,212.282 247.900 C 212.187 247.405,212.109 247.810,212.109 248.800 M236.467 250.211 C 236.421 252.439,236.201 253.706,235.750 254.350 C 235.140 255.221,235.145 255.269,235.831 255.137 C 236.310 255.045,236.707 254.418,236.981 253.326 C 237.212 252.407,237.535 251.523,237.700 251.361 C 238.207 250.863,238.032 250.000,237.424 250.000 C 237.053 250.000,236.792 249.466,236.691 248.500 C 236.605 247.675,236.504 248.445,236.467 250.211 M228.509 249.200 C 228.509 250.190,228.587 250.595,228.682 250.100 C 228.778 249.605,228.778 248.795,228.682 248.300 C 228.587 247.805,228.509 248.210,228.509 249.200 M217.293 252.400 C 217.293 253.170,217.375 253.485,217.476 253.100 C 217.576 252.715,217.576 252.085,217.476 251.700 C 217.375 251.315,217.293 251.630,217.293 252.400 M156.800 253.533 C 156.800 254.797,156.955 255.200,157.443 255.200 C 157.894 255.200,158.003 254.991,157.808 254.500 C 157.656 254.115,157.462 253.461,157.378 253.046 C 157.089 251.623,156.800 251.867,156.800 253.533 M187.403 255.350 C 187.472 256.790,187.725 257.831,188.058 258.037 C 188.786 258.490,189.005 257.743,188.461 256.661 C 188.223 256.187,187.862 255.170,187.659 254.400 C 187.335 253.168,187.304 253.282,187.403 255.350 M245.600 254.026 C 245.600 254.481,245.406 255.215,245.169 255.658 C 244.932 256.101,244.691 257.304,244.634 258.332 C 244.577 259.359,244.606 259.975,244.698 259.700 C 244.791 259.425,245.122 259.200,245.433 259.200 C 245.872 259.200,246.000 258.522,246.000 256.200 C 246.000 254.550,245.910 253.200,245.800 253.200 C 245.690 253.200,245.600 253.572,245.600 254.026 M199.200 254.576 C 199.200 254.893,199.369 255.257,199.575 255.384 C 199.781 255.512,199.959 255.927,199.971 256.308 C 199.982 256.689,200.145 259.340,200.332 262.200 L 200.671 267.400 200.736 261.333 C 200.771 257.996,200.691 254.981,200.557 254.633 C 200.254 253.841,199.200 253.798,199.200 254.576 M244.400 263.669 C 244.400 266.153,244.241 267.113,243.736 267.671 C 242.995 268.490,243.236 269.025,244.183 268.662 C 244.773 268.435,245.179 260.400,244.600 260.400 C 244.490 260.400,244.400 261.871,244.400 263.669 M235.400 261.200 C 235.264 261.420,235.262 261.776,235.395 261.992 C 235.603 262.329,235.128 264.116,234.210 266.447 C 234.040 266.878,234.204 267.160,234.700 267.290 C 235.340 267.457,235.428 267.281,235.324 266.042 C 235.205 264.625,235.840 262.400,236.363 262.400 C 236.510 262.400,236.657 262.040,236.690 261.600 C 236.752 260.774,235.839 260.490,235.400 261.200 M158.073 262.657 C 158.163 263.740,158.407 264.233,158.900 264.326 C 159.798 264.496,159.865 262.987,158.975 262.646 C 158.631 262.514,158.454 262.237,158.581 262.030 C 158.709 261.824,158.618 261.535,158.380 261.388 C 158.091 261.209,157.989 261.630,158.073 262.657 M187.200 262.551 C 187.200 262.854,187.470 263.749,187.800 264.538 C 188.206 265.511,188.415 267.496,188.446 270.687 C 188.472 273.279,188.575 275.085,188.676 274.700 C 188.776 274.315,189.136 274.000,189.476 274.000 C 189.931 274.000,190.021 273.763,189.818 273.100 C 189.319 271.466,189.132 270.233,188.954 267.400 C 188.689 263.173,188.434 262.000,187.782 262.000 C 187.462 262.000,187.200 262.248,187.200 262.551 M211.701 266.200 C 211.705 267.080,211.787 267.393,211.883 266.895 C 211.979 266.398,211.975 265.678,211.875 265.295 C 211.775 264.913,211.696 265.320,211.701 266.200 M200.432 268.003 C 200.414 268.334,200.587 269.234,200.816 270.003 C 201.045 270.771,201.319 272.018,201.423 272.774 C 201.734 275.016,202.000 274.704,202.000 272.095 C 202.000 270.591,201.795 269.452,201.464 269.121 C 201.170 268.827,200.824 268.319,200.696 267.993 C 200.493 267.475,200.459 267.476,200.432 268.003 M234.472 271.556 C 234.202 271.722,233.895 272.536,233.789 273.365 C 233.683 274.193,233.327 275.255,232.998 275.724 C 232.568 276.338,232.400 277.657,232.400 280.413 C 232.400 283.165,232.234 284.466,231.813 285.024 C 231.490 285.451,231.220 286.115,231.213 286.500 C 231.189 287.785,232.190 287.199,233.100 285.393 C 234.160 283.292,234.298 281.800,233.400 282.145 C 232.902 282.336,232.800 281.904,232.800 279.614 C 232.800 277.205,232.902 276.822,233.600 276.600 C 234.142 276.428,234.416 275.968,234.450 275.173 C 234.515 273.656,234.538 273.562,235.115 272.524 C 235.635 271.589,235.281 271.056,234.472 271.556 M159.378 273.038 C 159.456 273.897,159.537 274.735,159.559 274.900 C 159.582 275.065,159.890 275.200,160.243 275.200 C 160.987 275.200,160.746 273.629,159.794 272.270 C 159.284 271.541,159.249 271.605,159.378 273.038 M172.534 276.000 C 172.534 277.650,172.605 278.325,172.691 277.500 C 172.778 276.675,172.778 275.325,172.691 274.500 C 172.605 273.675,172.534 274.350,172.534 276.000 M242.872 275.372 C 242.832 275.796,242.585 276.736,242.323 277.462 C 241.827 278.835,242.109 279.651,242.831 278.929 C 243.061 278.699,243.180 277.631,243.096 276.556 C 243.013 275.480,242.912 274.947,242.872 275.372 M188.531 277.400 C 188.549 278.500,188.787 279.673,189.060 280.007 C 189.360 280.374,189.605 282.197,189.678 284.608 C 189.795 288.427,189.839 288.604,190.700 288.659 C 191.751 288.725,191.792 288.524,191.044 286.961 C 190.738 286.323,190.386 284.184,190.262 282.208 C 190.107 279.729,189.856 278.484,189.453 278.189 C 189.132 277.954,188.785 277.231,188.683 276.581 C 188.580 275.928,188.512 276.293,188.531 277.400 M211.324 280.200 C 211.326 281.520,211.401 282.012,211.490 281.293 C 211.579 280.574,211.577 279.494,211.486 278.893 C 211.395 278.292,211.322 278.880,211.324 280.200 M160.832 284.700 C 160.810 285.599,160.984 286.000,161.396 286.000 C 161.781 286.000,161.963 285.658,161.911 285.029 C 161.866 284.495,161.704 284.136,161.549 284.231 C 161.395 284.327,161.177 284.179,161.066 283.902 C 160.954 283.626,160.849 283.985,160.832 284.700 M241.553 285.100 C 241.527 285.485,241.536 285.964,241.574 286.163 C 241.611 286.363,241.480 286.633,241.283 286.763 C 240.419 287.332,240.328 289.252,241.190 288.713 C 241.819 288.321,242.000 287.782,242.000 286.304 C 242.000 284.511,241.655 283.583,241.553 285.100 M210.901 289.000 C 210.905 289.880,210.987 290.193,211.083 289.695 C 211.179 289.198,211.175 288.478,211.075 288.095 C 210.975 287.713,210.896 288.120,210.901 289.000 M240.483 292.680 C 240.416 295.325,240.264 296.039,239.700 296.368 C 239.225 296.644,239.177 296.780,239.549 296.788 C 239.992 296.798,240.001 296.916,239.600 297.400 C 239.192 297.892,239.221 298.000,239.764 298.000 C 240.724 298.000,240.847 297.366,240.699 293.170 L 240.566 289.400 240.483 292.680 M162.000 293.891 C 162.000 296.063,162.703 297.430,163.441 296.692 C 163.659 296.475,163.122 294.800,162.835 294.800 C 162.686 294.800,162.519 294.132,162.464 293.315 C 162.301 290.898,162.000 291.272,162.000 293.891 M231.600 293.400 C 231.600 293.730,231.375 293.955,231.100 293.900 C 230.825 293.845,230.645 294.025,230.700 294.300 C 230.755 294.575,230.620 294.800,230.400 294.800 C 230.180 294.800,230.000 295.230,230.000 295.756 C 230.000 296.420,230.213 296.694,230.700 296.656 C 231.522 296.590,232.387 295.918,232.151 295.528 C 232.061 295.378,232.170 295.142,232.393 295.004 C 233.042 294.603,232.884 292.800,232.200 292.800 C 231.870 292.800,231.600 293.070,231.600 293.400 M190.000 293.600 C 190.000 293.820,190.191 294.000,190.424 294.000 C 190.657 294.000,190.712 294.225,190.547 294.500 C 190.343 294.840,190.463 294.824,190.923 294.451 C 191.656 293.857,191.851 293.398,191.200 293.800 C 190.980 293.936,190.800 293.857,190.800 293.624 C 190.800 293.391,190.620 293.200,190.400 293.200 C 190.180 293.200,190.000 293.380,190.000 293.600 M190.068 295.900 C 189.669 296.676,189.886 297.644,190.560 298.094 C 190.864 298.297,190.846 298.390,190.500 298.394 C 189.895 298.401,189.806 301.433,190.400 301.800 C 190.620 301.936,190.818 302.802,190.840 303.724 C 190.873 305.112,190.930 305.228,191.174 304.400 C 191.336 303.850,191.325 303.001,191.150 302.514 C 190.967 302.007,190.995 301.527,191.215 301.391 C 191.427 301.260,191.600 301.343,191.600 301.576 C 191.600 301.809,191.868 302.000,192.196 302.000 C 192.586 302.000,192.763 301.656,192.708 301.000 C 192.663 300.450,192.474 300.000,192.289 300.000 C 192.104 300.000,192.064 299.820,192.200 299.600 C 192.336 299.380,192.270 299.200,192.053 299.200 C 191.836 299.200,191.575 299.515,191.472 299.900 C 191.369 300.285,191.274 299.970,191.260 299.200 C 191.222 297.031,191.095 296.418,190.733 296.641 C 190.550 296.755,190.400 296.657,190.400 296.424 C 190.400 296.191,190.580 296.000,190.800 296.000 C 191.020 296.000,191.200 295.820,191.200 295.600 C 191.200 294.948,190.457 295.145,190.068 295.900 M229.655 303.000 C 229.611 303.660,229.310 304.549,228.987 304.976 C 228.664 305.404,228.414 306.034,228.432 306.376 C 228.452 306.789,228.532 306.831,228.665 306.500 C 229.204 305.163,230.002 306.070,230.072 308.100 L 230.144 310.200 230.294 308.300 C 230.376 307.255,230.644 306.400,230.889 306.400 C 231.133 306.400,231.215 306.282,231.070 306.137 C 230.925 305.992,231.007 305.632,231.252 305.337 C 231.601 304.917,231.518 304.800,230.873 304.800 C 230.215 304.800,230.017 304.498,229.891 303.300 C 229.755 301.997,229.724 301.957,229.655 303.000 M176.531 305.400 C 176.533 306.940,176.605 307.521,176.692 306.691 C 176.779 305.861,176.777 304.601,176.689 303.891 C 176.600 303.181,176.529 303.860,176.531 305.400 M163.421 305.056 C 163.556 307.246,163.540 307.200,164.200 307.200 C 164.978 307.200,164.956 306.864,164.063 305.027 L 163.326 303.512 163.421 305.056 M238.599 305.906 C 238.378 306.068,238.147 306.740,238.086 307.400 C 237.981 308.544,238.004 308.564,238.588 307.824 C 238.924 307.396,239.200 306.721,239.200 306.324 C 239.200 305.514,239.166 305.491,238.599 305.906 M228.482 310.211 C 228.427 312.356,228.193 313.717,227.777 314.311 C 227.212 315.118,227.213 315.200,227.790 315.200 C 228.717 315.200,228.848 314.533,228.699 310.568 L 228.565 307.000 228.482 310.211 M214.501 309.800 C 214.505 310.680,214.587 310.993,214.683 310.495 C 214.779 309.998,214.775 309.278,214.675 308.895 C 214.575 308.513,214.496 308.920,214.501 309.800 M192.860 312.657 C 192.819 313.803,192.985 314.386,193.400 314.545 C 193.808 314.701,194.000 314.523,194.000 313.987 C 194.000 313.554,193.832 313.200,193.627 313.200 C 193.421 313.200,193.178 312.705,193.087 312.100 C 192.966 311.305,192.903 311.460,192.860 312.657 M237.672 314.100 C 237.632 314.485,237.615 314.915,237.634 315.055 C 237.653 315.196,237.428 315.459,237.134 315.640 C 236.755 315.873,236.542 317.387,236.400 320.851 C 236.261 324.252,236.048 325.784,235.700 325.900 C 234.917 326.161,235.099 327.278,235.900 327.125 C 236.507 327.008,236.615 326.411,236.714 322.629 C 236.802 319.275,236.970 318.164,237.440 317.820 C 237.887 317.493,238.010 316.842,237.898 315.387 C 237.813 314.294,237.712 313.715,237.672 314.100 M164.872 315.228 C 165.014 316.678,166.000 317.382,166.000 316.033 C 166.000 315.575,165.809 315.200,165.576 315.200 C 165.343 315.200,165.256 315.032,165.383 314.828 C 165.509 314.623,165.417 314.334,165.178 314.186 C 164.890 314.009,164.787 314.361,164.872 315.228 M229.067 315.467 C 228.920 315.613,228.807 316.378,228.816 317.167 L 228.831 318.600 229.416 317.254 C 230.212 315.421,230.032 314.501,229.067 315.467 M178.093 318.800 C 178.093 319.570,178.175 319.885,178.276 319.500 C 178.376 319.115,178.376 318.485,178.276 318.100 C 178.175 317.715,178.093 318.030,178.093 318.800 M194.070 322.940 C 194.031 324.006,194.254 325.446,194.564 326.140 C 194.874 326.833,195.231 327.670,195.356 328.000 C 195.482 328.330,195.517 327.922,195.435 327.093 C 195.353 326.264,195.099 325.360,194.870 325.085 C 194.642 324.810,194.384 323.778,194.297 322.792 L 194.140 321.000 194.070 322.940 M166.031 323.713 C 166.009 325.088,166.173 325.692,166.617 325.862 C 167.540 326.216,167.558 325.985,166.777 323.800 L 166.062 321.800 166.031 323.713 M226.817 322.800 C 226.755 323.130,226.727 323.535,226.753 323.700 C 226.779 323.865,226.620 324.000,226.400 324.000 C 226.180 324.000,226.000 324.450,226.000 325.000 C 226.000 326.074,226.686 326.363,227.041 325.438 C 227.159 325.129,227.182 324.274,227.092 323.538 C 227.002 322.802,226.878 322.470,226.817 322.800 M227.558 326.100 C 227.326 326.657,227.405 329.280,227.659 329.437 C 227.842 329.549,227.893 329.385,227.772 329.072 C 227.652 328.759,227.789 328.255,228.077 327.952 C 228.856 327.130,228.937 326.000,228.218 326.000 C 227.878 326.000,227.581 326.045,227.558 326.100 M210.134 329.600 C 210.134 331.250,210.205 331.925,210.291 331.100 C 210.378 330.275,210.378 328.925,210.291 328.100 C 210.205 327.275,210.134 327.950,210.134 329.600 M179.450 328.800 C 179.521 331.078,179.562 331.271,179.923 331.048 C 180.100 330.938,180.286 332.232,180.336 333.924 C 180.426 336.965,181.531 339.338,181.939 337.368 C 182.016 336.998,181.855 336.558,181.582 336.389 C 181.282 336.203,181.015 334.838,180.909 332.941 C 180.770 330.451,179.961 327.200,179.481 327.200 C 179.437 327.200,179.423 327.920,179.450 328.800 M225.600 332.139 C 225.600 332.655,225.311 333.656,224.958 334.363 C 224.605 335.071,224.425 335.759,224.558 335.892 C 224.691 336.025,224.800 335.923,224.800 335.667 C 224.800 335.410,225.070 335.200,225.400 335.200 C 225.853 335.200,226.000 334.711,226.000 333.200 C 226.000 332.100,225.910 331.200,225.800 331.200 C 225.690 331.200,225.600 331.622,225.600 332.139 M167.367 332.656 C 167.441 333.355,167.756 333.853,168.177 333.936 C 168.856 334.069,168.698 333.638,167.344 331.656 C 167.289 331.577,167.300 332.027,167.367 332.656 M234.485 335.364 C 233.936 336.580,234.134 337.226,234.841 336.519 C 235.075 336.285,235.207 335.672,235.134 335.159 C 235.004 334.250,234.986 334.256,234.485 335.364 M226.243 336.633 C 226.109 336.981,226.025 338.196,226.054 339.333 C 226.084 340.470,226.183 340.950,226.274 340.400 C 226.365 339.850,226.550 339.130,226.685 338.800 C 226.820 338.470,226.946 338.080,226.965 337.933 C 226.984 337.787,227.135 337.532,227.300 337.367 C 227.800 336.867,227.636 336.000,227.043 336.000 C 226.736 336.000,226.376 336.285,226.243 336.633 M224.484 339.500 C 224.438 341.315,224.406 342.896,224.414 343.014 C 224.422 343.132,224.128 343.529,223.761 343.896 C 223.284 344.373,223.232 344.611,223.581 344.727 C 224.576 345.059,224.827 344.033,224.699 340.165 L 224.567 336.200 224.484 339.500 M180.502 338.487 C 180.556 338.989,180.731 339.498,180.891 339.618 C 181.050 339.738,181.425 340.908,181.722 342.218 C 182.133 344.026,182.448 344.628,183.032 344.716 C 183.700 344.817,183.722 344.765,183.200 344.316 C 182.870 344.032,182.547 343.350,182.482 342.800 C 182.417 342.250,182.296 341.440,182.212 341.000 C 182.129 340.560,182.047 339.801,182.031 339.314 C 182.014 338.827,181.641 338.236,181.202 338.001 C 180.507 337.629,180.417 337.691,180.502 338.487 M209.701 340.200 C 209.705 341.080,209.787 341.393,209.883 340.895 C 209.979 340.398,209.975 339.678,209.875 339.295 C 209.775 338.913,209.696 339.320,209.701 340.200 M168.800 340.784 C 168.800 341.575,169.001 342.000,169.375 342.000 C 170.074 342.000,170.038 340.725,169.320 340.054 C 168.901 339.663,168.800 339.804,168.800 340.784 M233.676 342.900 C 233.561 344.569,233.562 344.563,233.092 345.130 C 232.850 345.421,232.551 347.599,232.426 349.969 C 232.285 352.667,232.001 354.519,231.667 354.920 C 230.803 355.959,231.193 357.150,232.100 356.243 C 232.674 355.669,232.800 354.818,232.800 351.516 C 232.800 348.332,232.931 347.393,233.423 347.033 C 233.898 346.685,234.011 346.013,233.898 344.189 C 233.817 342.875,233.717 342.295,233.676 342.900 M170.046 347.700 C 170.005 349.749,170.087 350.000,170.800 350.000 C 171.590 350.000,171.736 349.244,171.044 348.742 C 170.848 348.600,170.554 347.790,170.390 346.942 C 170.109 345.486,170.089 345.528,170.046 347.700 M225.067 346.267 C 224.920 346.413,224.806 347.268,224.814 348.167 C 224.828 349.784,224.834 349.790,225.400 348.800 C 226.325 347.183,226.072 345.262,225.067 346.267 M182.013 348.700 C 182.006 349.415,182.180 350.000,182.400 350.000 C 182.620 350.000,182.800 350.255,182.800 350.567 C 182.800 350.878,183.025 351.209,183.300 351.302 C 183.689 351.433,183.694 351.598,183.322 352.050 C 182.929 352.526,183.018 352.644,183.822 352.710 C 184.782 352.790,185.203 352.201,184.382 351.927 C 184.152 351.851,183.935 351.398,183.899 350.922 C 183.863 350.445,183.691 350.144,183.517 350.251 C 183.343 350.359,183.200 350.111,183.200 349.700 C 183.200 349.289,182.936 348.604,182.613 348.176 C 182.057 347.442,182.025 347.470,182.013 348.700 M222.500 353.179 C 221.894 354.161,221.849 355.200,222.413 355.200 C 222.957 355.200,223.296 354.265,223.132 353.213 C 223.000 352.371,222.999 352.371,222.500 353.179 M171.391 356.811 C 171.563 358.164,171.892 358.800,172.424 358.800 C 173.090 358.800,172.824 357.224,172.022 356.422 C 171.251 355.651,171.245 355.654,171.391 356.811 M223.550 357.000 C 223.393 357.627,223.431 359.600,223.600 359.597 C 223.832 359.593,224.800 357.595,224.800 357.120 C 224.800 356.777,223.634 356.665,223.550 357.000 M183.427 358.900 C 183.581 359.395,183.879 359.910,184.088 360.045 C 184.297 360.179,184.453 360.404,184.434 360.545 C 184.415 360.685,184.431 362.105,184.470 363.700 C 184.516 365.611,184.592 366.021,184.693 364.900 C 184.796 363.756,185.035 363.200,185.423 363.200 C 185.775 363.200,186.000 362.801,186.000 362.176 C 186.000 361.464,185.848 361.244,185.500 361.453 C 185.113 361.685,185.116 361.611,185.510 361.123 C 185.932 360.602,185.908 360.450,185.369 360.243 C 185.010 360.106,184.812 359.747,184.927 359.445 C 185.172 358.807,184.483 358.000,183.693 358.000 C 183.309 358.000,183.230 358.269,183.427 358.900 M221.623 361.800 C 221.558 362.460,221.521 363.118,221.540 363.262 C 221.559 363.406,221.310 363.743,220.987 364.011 C 220.580 364.349,220.422 365.187,220.472 366.749 L 220.544 369.000 220.697 367.026 C 220.786 365.881,221.103 364.867,221.452 364.611 C 221.880 364.298,222.009 363.655,221.897 362.385 C 221.778 361.033,221.711 360.891,221.623 361.800 M209.301 363.400 C 209.305 364.280,209.387 364.593,209.483 364.095 C 209.579 363.598,209.575 362.878,209.475 362.495 C 209.375 362.113,209.296 362.520,209.301 363.400 M230.769 363.300 C 230.753 363.355,230.680 363.670,230.608 364.000 C 230.536 364.330,230.351 364.915,230.196 365.300 C 229.998 365.793,230.104 366.000,230.557 366.000 C 231.025 366.000,231.200 365.619,231.200 364.600 C 231.200 363.493,230.946 362.725,230.769 363.300 M172.846 364.467 C 172.791 365.746,173.151 366.800,173.643 366.800 C 173.839 366.800,174.000 366.350,174.000 365.800 C 174.000 365.250,173.833 364.800,173.629 364.800 C 173.425 364.800,173.176 364.485,173.076 364.100 C 172.960 363.656,172.876 363.790,172.846 364.467 M222.267 366.267 C 222.120 366.413,222.027 367.448,222.060 368.567 C 222.098 369.869,222.179 370.169,222.285 369.400 C 222.376 368.740,222.664 368.020,222.925 367.800 C 223.618 367.216,223.726 366.000,223.084 366.000 C 222.781 366.000,222.413 366.120,222.267 366.267 M184.400 367.177 C 184.400 367.439,184.593 368.012,184.828 368.452 C 185.479 369.668,185.897 372.658,186.070 377.324 C 186.147 379.413,187.132 382.031,187.227 380.400 C 187.403 377.397,187.263 376.005,186.744 375.600 C 186.603 375.490,186.399 373.726,186.291 371.680 C 186.182 369.634,186.027 367.918,185.947 367.867 C 185.866 367.816,185.485 367.533,185.100 367.238 C 184.593 366.850,184.400 366.833,184.400 367.177 M220.454 372.800 C 220.321 378.174,220.122 380.038,219.629 380.531 C 219.008 381.152,219.102 382.000,219.792 382.000 C 220.120 382.000,220.480 381.508,220.599 380.900 C 220.717 380.295,220.998 379.080,221.224 378.200 C 221.831 375.831,221.833 375.808,221.400 375.705 C 221.180 375.652,220.899 374.122,220.775 372.305 L 220.549 369.000 220.454 372.800 M174.000 372.719 C 174.000 374.362,174.160 374.857,174.800 375.200 C 175.746 375.706,175.989 374.421,175.089 373.674 C 174.808 373.441,174.538 372.758,174.488 372.157 C 174.328 370.224,174.000 370.601,174.000 372.719 M229.094 374.403 C 228.599 375.547,228.400 377.078,228.400 379.754 C 228.400 382.598,228.255 383.622,227.800 384.000 C 227.122 384.563,226.985 386.000,227.610 386.000 C 228.382 386.000,228.800 383.946,228.800 380.145 C 228.800 377.299,228.951 376.192,229.400 375.743 C 229.883 375.260,230.296 372.800,229.894 372.800 C 229.836 372.800,229.476 373.521,229.094 374.403 M175.372 381.911 C 175.481 382.935,176.800 383.784,176.800 382.829 C 176.800 382.593,176.609 382.400,176.376 382.400 C 176.143 382.400,176.035 382.265,176.134 382.100 C 176.234 381.935,176.078 381.580,175.786 381.311 C 175.356 380.913,175.278 381.025,175.372 381.911 M219.726 383.700 C 219.175 384.558,219.264 386.200,219.820 385.440 C 220.073 385.095,220.396 384.930,220.540 385.073 C 220.683 385.216,220.800 384.853,220.800 384.267 C 220.800 383.141,220.266 382.860,219.726 383.700 M187.367 389.856 C 187.441 390.555,187.756 391.053,188.177 391.136 C 188.856 391.269,188.698 390.838,187.344 388.856 C 187.289 388.777,187.300 389.227,187.367 389.856 M199.720 390.800 C 199.720 392.010,199.795 392.505,199.887 391.900 C 199.978 391.295,199.978 390.305,199.887 389.700 C 199.795 389.095,199.720 389.590,199.720 390.800 M176.832 390.300 C 176.810 390.905,177.030 391.198,177.500 391.194 C 177.932 391.190,178.031 391.075,177.760 390.894 C 177.518 390.732,177.217 390.330,177.092 390.000 C 176.939 389.599,176.853 389.699,176.832 390.300 M226.500 393.483 C 225.851 394.880,225.870 395.200,226.600 395.200 C 227.019 395.200,227.200 394.778,227.200 393.800 C 227.200 392.120,227.144 392.095,226.500 393.483 M187.301 393.756 C 187.371 394.281,187.678 395.012,187.982 395.378 C 188.449 395.941,188.450 396.026,187.986 395.923 C 187.664 395.851,187.432 396.132,187.427 396.600 C 187.421 397.040,187.143 397.522,186.808 397.672 C 186.398 397.855,186.547 397.953,187.267 397.972 C 187.853 397.987,188.424 397.775,188.535 397.500 C 188.696 397.100,188.743 397.100,188.768 397.500 C 188.788 397.803,189.377 398.000,190.267 398.000 C 191.902 398.000,191.918 397.650,190.289 397.516 C 189.394 397.442,189.205 397.194,188.991 395.814 C 188.605 393.318,188.393 392.800,187.759 392.800 C 187.372 392.800,187.216 393.124,187.301 393.756 M178.000 396.730 C 178.000 397.906,178.097 397.997,179.300 397.954 C 180.015 397.928,180.283 397.824,179.895 397.723 C 179.507 397.622,179.259 397.418,179.344 397.270 C 179.429 397.121,179.161 396.654,178.749 396.230 C 178.013 395.473,178.000 395.481,178.000 396.730 M181.891 397.889 C 182.601 397.977,183.861 397.979,184.691 397.892 C 185.521 397.805,184.940 397.733,183.400 397.731 C 181.860 397.729,181.181 397.800,181.891 397.889 M216.900 397.876 C 217.285 397.976,217.915 397.976,218.300 397.876 C 218.685 397.775,218.370 397.693,217.600 397.693 C 216.830 397.693,216.515 397.775,216.900 397.876 M221.505 397.883 C 222.002 397.979,222.722 397.975,223.105 397.875 C 223.487 397.775,223.080 397.696,222.200 397.701 C 221.320 397.705,221.007 397.787,221.505 397.883 " stroke="none" fill="#1c6354" fill-rule="evenodd"></path></g></svg>